<svg xmlns="http://www.w3.org/2000/svg" width="34.001" height="31.148" viewBox="0 0 34.001 31.148"><g transform="translate(0.229 0.23)"><path d="M19.037,20.181a1,1,0,0,1-.616-.213,10.6,10.6,0,0,1-2.979-4.222,1,1,0,0,1,1.836-.794,8.685,8.685,0,0,0,2.377,3.441,1,1,0,0,1-.617,1.787Z" transform="translate(6.614 6.186)" fill="#f0d080"/><path d="M22.428,27.726a4.861,4.861,0,0,1-3.055-1.115,1,1,0,0,1,1.233-1.575,2.83,2.83,0,0,0,1.97.687l.1,0A1.867,1.867,0,0,0,23.9,25c1.9-2.17,1.643-7.483,1.318-10.458-.6-5.462-2.05-8.585-3.163-10.242-1.342-2-2.591-2.526-3.064-2.526-.365,0-1.335,0-2.4,2.8a1,1,0,0,1-1.87-.709C15.784,1.07,17.14-.23,18.993-.23c.571,0,2.6.246,4.724,3.41,1.777,2.644,2.984,6.5,3.492,11.14.641,5.865.035,9.9-1.8,11.994a3.783,3.783,0,0,1-2.688,1.406l-.083,0C22.579,27.724,22.51,27.726,22.428,27.726Z" transform="translate(6.317)" fill="#f0d080"/><path d="M15.58,14.844a1,1,0,0,1-.985-.834c-.8-4.715-.678-8.475.351-11.176a1,1,0,1,1,1.869.712c-.888,2.331-.974,5.834-.248,10.131a1,1,0,0,1-.987,1.167Z" transform="translate(6.069 1.027)" fill="#f0d080"/><path d="M12.8,29.844a10.683,10.683,0,0,1-2.6-.471c-1.774-.524-2.135-.941-2.254-1.078-.9-1.038-1.24-3.219-1.541-5.553-.03-.231-.063-.491-.095-.71-.461-.07-1.11-.162-1.6-.231-.628-.088-1.17-.165-1.442-.21l-.1-.016a2.979,2.979,0,0,1-1.811-.853,6.192,6.192,0,0,1-1.4-3.351A10.331,10.331,0,0,1,.054,13a5.843,5.843,0,0,1,1.173-2.386c.343-.392.871-.565,4.009-1.467C9.758,7.851,18.175,5.432,20.981,2.6A1,1,0,1,1,22.4,4C19.229,7.21,10.816,9.628,5.789,11.073c-1.335.384-2.712.78-3.138.964-.31.417-1.247,1.971-.725,4.995a4.348,4.348,0,0,0,.853,2.287,1.02,1.02,0,0,0,.685.28l.133.021c.247.041.8.119,1.392.2a24.422,24.422,0,0,1,2.434.386,1.332,1.332,0,0,1,.816,1.211c.048.277.095.644.15,1.068.145,1.123.48,3.719,1.034,4.456a7.818,7.818,0,0,0,1.7.612,9.019,9.019,0,0,0,1.455.28c.052-.3.111-.694.162-1.039a14.361,14.361,0,0,1,1.18-4.69,2.136,2.136,0,0,1,1.559-.824,20.45,20.45,0,0,1,6.034.587c1.552.345,4.332,1.087,5.516,2.173a1,1,0,1,1-1.352,1.474c-.527-.483-2.394-1.262-5.249-1.831a14.559,14.559,0,0,0-4.881-.386,17.909,17.909,0,0,0-.827,3.792c-.215,1.448-.289,1.881-.552,2.219l0,.006a1.635,1.635,0,0,1-1.28.528Z" transform="translate(0 1.073)" fill="#f0d080"/><path d="M21.367,20.024a1,1,0,0,1-.37-.071c-1.412-.563-2.538-2.284-3.347-5.114a28.172,28.172,0,0,1-1-7.309,1,1,0,0,1,2,0c0,4.8,1.5,9.932,3.088,10.565a1,1,0,0,1-.371,1.929Z" transform="translate(7.161 2.868)" fill="#f0d080"/></g></svg>