<?xml version="1.0" encoding="utf-8"?>
<!-- Generator: Adobe Illustrator 28.0.0, SVG Export Plug-In . SVG Version: 6.00 Build 0)  -->
<svg version="1.1" id="uuid-a5165135-1c5b-4a48-abfe-0d411f2a6010"
	 xmlns="http://www.w3.org/2000/svg" xmlns:xlink="http://www.w3.org/1999/xlink" x="0px" y="0px" viewBox="0 0 1784.2 725.1"
	 style="enable-background:new 0 0 1784.2 725.1;" xml:space="preserve">
<style type="text/css">
	.st0{fill:#FFFFFF;}
</style>
<g>
	<g>
		<path class="st0" d="M596.7,200.8c10.3,0,19,0.8,26.1,2.4s12.8,3.2,16.8,4.9l-7.7,39.7c-3.8-1.4-8.3-2.6-13.6-3.6
			c-5.3-1.1-11-1.6-17.2-1.6c-16.2,0-27.3,4.3-33.4,13c-6.1,8.6-9.1,19.8-9.1,33.6v14.2h77.8v40.9h-77.8v170.9h-49V288.3
			c0-27.5,7.2-49,21.5-64.4C545.4,208.5,567.3,200.8,596.7,200.8L596.7,200.8z M727.9,241.3c0,9.2-3,16.5-8.9,21.9s-13,8.1-21.1,8.1
			s-15.5-2.7-21.5-8.1c-5.9-5.4-8.9-12.7-8.9-21.9s3-16.9,8.9-22.3c5.9-5.4,13.1-8.1,21.5-8.1s15.1,2.7,21.1,8.1
			C725,224.5,727.9,231.9,727.9,241.3z M722.3,515.1h-49V303.3h49V515.1z"/>
		<path class="st0" d="M839.6,515.1c-13.5-27.8-27.5-59.7-41.7-95.8s-27.2-74.7-38.8-116h52.3c3,11.9,6.4,24.6,10.4,38.3
			c3.9,13.6,8.1,27.3,12.6,40.9c4.5,13.6,9.1,26.9,13.8,39.7c4.7,12.8,9.2,24.4,13.2,34.6c4.1-10.3,8.4-21.8,13-34.6
			c4.6-12.8,9.2-26,13.6-39.7c4.5-13.6,8.7-27.3,12.8-40.9c4.1-13.6,7.6-26.4,10.6-38.3H962c-11.7,41.3-24.6,80-38.8,116
			c-14.2,36-28.1,68-41.7,95.8H839.6L839.6,515.1z"/>
		<path class="st0" d="M1068.5,298c16.2,0,29.8,2,40.9,6.1c11.1,4,19.9,9.7,26.5,17c6.6,7.3,11.3,16.1,14.2,26.5
			c2.8,10.4,4.2,21.8,4.2,34.2v128.4c-7.6,1.6-19,3.6-34.2,5.9c-15.2,2.3-32.5,3.4-51.6,3.4c-12.7,0-24.3-1.2-34.8-3.6
			c-10.5-2.4-19.5-6.3-26.9-11.7c-7.4-5.4-13.2-12.4-17.4-21.1c-4.2-8.6-6.3-19.3-6.3-32s2.4-22.4,7.1-30.8
			c4.7-8.4,11.1-15.2,19.2-20.5c8.1-5.3,17.5-9,28.1-11.3c10.7-2.3,21.8-3.4,33.4-3.4c5.4,0,11.1,0.3,17,1c5.9,0.7,12.3,1.8,19,3.4
			v-8.1c0-5.7-0.7-11.1-2-16.2s-3.7-9.6-7.1-13.6c-3.4-3.9-7.8-7-13.4-9.1c-5.5-2.2-12.5-3.2-20.9-3.2c-11.3,0-21.7,0.8-31.2,2.4
			c-9.5,1.6-17.2,3.5-23.1,5.7l-6.1-39.7c6.2-2.2,15.2-4.3,27.1-6.5C1042.3,299.1,1055,298,1068.5,298L1068.5,298z M1072.6,480.7
			c15.1,0,26.6-0.8,34.4-2.4V424c-2.7-0.8-6.6-1.6-11.7-2.4c-5.1-0.8-10.8-1.2-17-1.2c-5.4,0-10.9,0.4-16.4,1.2s-10.5,2.3-15,4.5
			c-4.5,2.2-8,5.2-10.7,9.1c-2.7,3.9-4.1,8.9-4.1,14.8c0,11.6,3.6,19.6,10.9,24.1S1060.1,480.7,1072.6,480.7L1072.6,480.7z"/>
		<path class="st0" d="M1288,519.1c-14.6-0.3-26.7-1.9-36.2-4.9s-17.2-7.2-22.9-12.8c-5.7-5.5-9.7-12.4-11.9-20.6
			c-2.3-8.2-3.4-17.6-3.4-28.1V208.9l49-8.1v242.6c0,5.9,0.5,10.9,1.4,15c0.9,4,2.6,7.5,5.1,10.3c2.4,2.8,5.7,5,9.9,6.5
			c4.2,1.5,9.5,2.6,16,3.4L1288,519.1L1288,519.1z"/>
		<path class="st0" d="M1513.6,508.6c-9.7,3-21.9,5.7-36.7,8.1c-14.7,2.4-30.2,3.6-46.4,3.6s-31.7-2.6-44.9-7.7
			c-13.2-5.1-24.5-12.5-33.8-22.1c-9.3-9.6-16.5-21.2-21.5-34.8c-5-13.6-7.5-29-7.5-46s2.1-31.9,6.3-45.6
			c4.2-13.6,10.3-25.3,18.4-35c8.1-9.7,17.9-17.2,29.6-22.5c11.6-5.3,25-7.9,40.1-7.9c10.2,0,19.3,1.2,27.1,3.6
			c7.8,2.4,14.6,5.1,20.2,8.1V208.9l49-8.1L1513.6,508.6L1513.6,508.6z M1373,408.6c0,21.6,5.1,38.5,15.4,50.8
			c10.3,12.3,24.4,18.4,42.5,18.4c7.8,0,14.5-0.3,20.1-1c5.5-0.7,10.1-1.4,13.6-2.2V353.1c-4.3-3-10.1-5.7-17.2-8.3
			c-7.2-2.6-14.8-3.9-22.9-3.9c-17.8,0-30.8,6.1-39.1,18.2C1377.2,371.3,1373,387.8,1373,408.6L1373,408.6z"/>
		<path class="st0" d="M1630.6,241.3c0,9.2-3,16.5-8.9,21.9c-5.9,5.4-13,8.1-21.1,8.1s-15.5-2.7-21.5-8.1
			c-5.9-5.4-8.9-12.7-8.9-21.9s3-16.9,8.9-22.3c5.9-5.4,13.1-8.1,21.5-8.1s15.1,2.7,21.1,8.1
			C1627.6,224.5,1630.6,231.9,1630.6,241.3z M1625.3,515.1h-49V303.3h49V515.1z"/>
	</g>
	<g>
		<path class="st0" d="M191.1,651.2l63-33c31.2-15.2,47.5-41.5,48.9-76c0.2-4,0.5-15.5,0.8-24.7l-112.3,58.6L191.1,651.2
			L191.1,651.2z"/>
		<path class="st0" d="M430.7,159.1l0.1-80.4L200,209.2c-32.5,18.2-49.8,51.2-49,88.3v67.3l231.4-120.3
			C419.6,227.6,431.4,189.3,430.7,159.1L430.7,159.1z"/>
		<polygon class="st0" points="165.9,374.2 234.7,399.1 383.3,321.7 313.7,297.2 		"/>
		<path class="st0" d="M191.4,481.9l0.1,76.9L346,478.1c33.2-17.4,46-53,45.4-82.4l0-61c0,0-127.4,67.9-163.1,84.8
			C202.3,431.8,193.6,453.6,191.4,481.9z"/>
	</g>
</g>
</svg>
