<?xml version="1.0" encoding="UTF-8"?>
<svg id="uuid-a5165135-1c5b-4a48-abfe-0d411f2a6010" xmlns="http://www.w3.org/2000/svg" viewBox="0 0 1784.19 725.14">
  <defs>
    <style>
      .cls-1 {
        fill: #2eaaa1;
      }

      .cls-1, .cls-2, .cls-3, .cls-4, .cls-5, .cls-6 {
        stroke-width: 0px;
      }

      .cls-2 {
        fill: #1c6a63;
      }

      .cls-3 {
        fill: #17504e;
      }

      .cls-4 {
        fill: #11746f;
      }

      .cls-5 {
        fill: #003253;
      }

      .cls-6 {
        fill: #0095f8;
      }
    </style>
  </defs>
  <g>
    <path class="cls-5" d="m596.73,200.84c10.26,0,18.97.81,26.12,2.43,7.15,1.62,12.76,3.25,16.81,4.86l-7.7,39.69c-3.78-1.35-8.3-2.56-13.57-3.64-5.26-1.07-11-1.62-17.21-1.62-16.2,0-27.34,4.32-33.41,12.96-6.08,8.64-9.11,19.84-9.11,33.61v14.18h77.75v40.9h-77.75v170.89h-49v-226.78c0-27.53,7.15-49,21.46-64.39,14.31-15.38,36.18-23.08,65.6-23.08Zm131.21,40.5c0,9.18-2.97,16.47-8.91,21.87-5.94,5.4-12.96,8.1-21.06,8.1s-15.53-2.7-21.47-8.1c-5.94-5.4-8.91-12.68-8.91-21.87s2.97-16.87,8.91-22.27c5.94-5.4,13.09-8.1,21.47-8.1s15.12,2.7,21.06,8.1c5.94,5.4,8.91,12.82,8.91,22.27Zm-5.67,273.75h-49v-211.79h49v211.79Z"/>
    <path class="cls-5" d="m839.61,515.09c-13.55-27.8-27.45-59.73-41.68-95.77-14.23-36.04-27.18-74.72-38.83-116.02h52.26c2.98,11.88,6.44,24.64,10.37,38.27,3.93,13.64,8.13,27.27,12.6,40.9,4.47,13.64,9.08,26.87,13.83,39.69,4.74,12.83,9.15,24.37,13.22,34.63,4.06-10.26,8.4-21.79,13.01-34.63,4.61-12.82,9.15-26.05,13.62-39.69,4.47-13.63,8.74-27.26,12.81-40.9,4.07-13.63,7.59-26.39,10.58-38.27h50.63c-11.65,41.3-24.6,79.98-38.83,116.02-14.24,36.04-28.13,67.96-41.68,95.77h-41.89Z"/>
    <path class="cls-5" d="m1068.5,298.04c16.2,0,29.83,2.02,40.9,6.07,11.07,4.05,19.9,9.72,26.53,17.01,6.61,7.29,11.34,16.14,14.17,26.53,2.83,10.4,4.25,21.8,4.25,34.22v128.37c-7.56,1.62-18.97,3.58-34.22,5.87-15.25,2.3-32.47,3.44-51.63,3.44-12.69,0-24.3-1.21-34.83-3.64-10.53-2.43-19.51-6.34-26.93-11.75-7.43-5.4-13.23-12.41-17.42-21.06-4.19-8.63-6.28-19.29-6.28-31.99s2.36-22.41,7.09-30.78c4.72-8.36,11.13-15.19,19.24-20.45,8.1-5.26,17.47-9.04,28.14-11.34,10.66-2.29,21.8-3.44,33.41-3.44,5.4,0,11.07.34,17.01,1.02,5.93.67,12.28,1.82,19.03,3.44v-8.09c0-5.67-.68-11.07-2.03-16.2-1.35-5.13-3.71-9.65-7.08-13.56-3.38-3.91-7.83-6.95-13.36-9.12-5.54-2.16-12.49-3.24-20.86-3.24-11.34,0-21.74.81-31.18,2.43-9.45,1.62-17.15,3.51-23.08,5.67l-6.08-39.69c6.21-2.16,15.25-4.31,27.13-6.48,11.88-2.16,24.57-3.24,38.07-3.24Zm4.05,182.63c15.12,0,26.59-.81,34.42-2.43v-54.27c-2.7-.8-6.62-1.62-11.74-2.43-5.13-.81-10.8-1.21-17.01-1.21-5.4,0-10.87.4-16.4,1.21-5.53.81-10.53,2.3-14.98,4.45-4.46,2.16-8.04,5.21-10.73,9.12-2.7,3.91-4.05,8.85-4.05,14.78,0,11.61,3.64,19.65,10.93,24.1,7.29,4.45,17.14,6.68,29.56,6.68Z"/>
    <path class="cls-5" d="m1287.99,519.14c-14.58-.27-26.66-1.89-36.24-4.86-9.58-2.97-17.21-7.22-22.88-12.76-5.67-5.53-9.65-12.41-11.95-20.65-2.3-8.23-3.44-17.62-3.44-28.15v-243.78l49-8.1v242.57c0,5.94.47,10.94,1.42,14.99.94,4.04,2.63,7.49,5.06,10.32,2.43,2.84,5.73,5,9.92,6.48,4.18,1.49,9.52,2.63,16,3.44l-6.89,40.5Z"/>
    <path class="cls-5" d="m1513.55,508.61c-9.72,2.98-21.94,5.67-36.65,8.1-14.72,2.43-30.17,3.64-46.37,3.64s-31.72-2.57-44.95-7.69c-13.23-5.13-24.5-12.49-33.81-22.07-9.31-9.58-16.47-21.19-21.46-34.82-5-13.64-7.49-28.96-7.49-45.97s2.09-31.92,6.28-45.56c4.19-13.64,10.33-25.31,18.43-35.04,8.1-9.72,17.95-17.21,29.56-22.47,11.6-5.26,24.97-7.9,40.09-7.9,10.25,0,19.3,1.21,27.13,3.65,7.83,2.43,14.58,5.13,20.25,8.1v-101.65l49-8.1v307.77Zm-140.52-100.02c0,21.6,5.13,38.54,15.39,50.82,10.26,12.29,24.43,18.42,42.52,18.42,7.83,0,14.51-.34,20.05-1.01,5.53-.67,10.05-1.42,13.57-2.23v-121.49c-4.32-2.96-10.06-5.73-17.21-8.3-7.16-2.57-14.78-3.85-22.88-3.85-17.82,0-30.85,6.08-39.08,18.22-8.24,12.15-12.35,28.62-12.35,49.41Z"/>
    <path class="cls-5" d="m1630.58,241.34c0,9.18-2.98,16.47-8.91,21.87-5.94,5.4-12.96,8.1-21.06,8.1s-15.53-2.7-21.46-8.1c-5.94-5.4-8.91-12.68-8.91-21.87s2.97-16.87,8.91-22.27c5.94-5.4,13.09-8.1,21.46-8.1s15.12,2.7,21.06,8.1c5.93,5.4,8.91,12.82,8.91,22.27Zm-5.26,273.75h-49v-211.79h49v211.79Z"/>
  </g>
  <g>
    <path class="cls-3" d="m306.22,502.23s-.99,34.86-1.11,36.92c-1.91,34.4-17.64,60.62-48.68,75.76l-62.76,32.85.34-82.86,112.2-62.67Z"/>
    <polygon class="cls-4" points="393.05 322.23 393.05 322.3 251.03 401.65 250.92 401.61 153.78 366.43 300.11 289.49 300.18 289.53 393.03 322.23 393.05 322.23"/>
    <polygon class="cls-2" points="393.14 322.26 393.05 322.3 393.05 322.23 393.14 322.26"/>
    <path class="cls-6" d="m232.96,411.71c-30.8,17.38-39.02,40.38-39.02,67.33l.07,85.87s.14-.08.41-.23c0,0,143.94-80.47,153-85.61,30.67-17.39,46.5-50.34,45.68-85.88l-.05-70.88s-155.51,86.81-160.09,89.4Z"/>
    <path class="cls-1" d="m202.46,207.32c-32.29,18.28-49.6,51.03-48.78,87.94v71.14s222.01-116.61,233.54-122.81c30.85-16.59,45.94-49.2,45.11-86.1l.09-80.07s-197.69,111.63-229.98,129.91Z"/>
  </g>
</svg>