<svg xmlns="http://www.w3.org/2000/svg" width="33.992" height="33.998" viewBox="0 0 33.992 33.998"><g transform="translate(-0.765 0.238)"><path d="M19.353,30.583h-.029A10.189,10.189,0,0,1,14.3,28.812a27,27,0,0,1-5.046-4.087c-3.371-3.432-5.362-7.006-5.326-9.562a3.536,3.536,0,0,1,1.776-2.7A29.014,29.014,0,0,1,9.189,10.5a37.331,37.331,0,0,0,6.3-3.785,13.338,13.338,0,0,0,4.6-6.166,1,1,0,0,1,.627-.623,3.22,3.22,0,0,1,1.028-.159c1.891,0,4.11,1.413,5.639,2.6a27.2,27.2,0,0,1,5.2,5.359c1.269,1.763,2.649,4.26,2.018,6.147a1,1,0,0,1-.623.628,13.411,13.411,0,0,0-6.167,4.588,37.376,37.376,0,0,0-3.8,6.273,29.066,29.066,0,0,1-1.966,3.46,3.567,3.567,0,0,1-2.664,1.768ZM21.775,1.762C19.537,7.455,14.1,10.232,10.1,12.277a27.91,27.91,0,0,0-3.231,1.81c-.6.432-.938.817-.938,1.084q0,.008,0,.015c-.031,1.972,1.835,5.166,4.753,8.137,3.083,3.139,6.562,5.252,8.659,5.26.265,0,.649-.335,1.08-.936a27.962,27.962,0,0,0,1.813-3.209c2.053-3.982,4.841-9.39,10.523-11.626a7.891,7.891,0,0,0-1.8-3.924C28.285,5.174,23.921,1.791,21.775,1.762Z" transform="translate(0 0)" fill="#df1e93"/><path d="M19.381,8.92a1,1,0,0,1-.266-.036,5.811,5.811,0,0,1-2.569-1.8A6.8,6.8,0,0,1,15.206,5a1,1,0,0,1,1.908-.6,5.644,5.644,0,0,0,2.531,2.556,1,1,0,0,1-.265,1.964Z" transform="translate(8.296 2.27)" fill="#df1e93"/><path d="M2.218,23.237a1.415,1.415,0,0,1-1.052-.417c-.855-.872-.123-2.257.189-2.849A24.214,24.214,0,0,1,3.2,17.141c1.382-1.884,2.86-3.61,2.923-3.682a1,1,0,0,1,1.518,1.3c-.012.014-1.255,1.465-2.489,3.106a24.721,24.721,0,0,0-2.014,3.01A24.182,24.182,0,0,0,6.09,18.93c1.619-1.2,3.049-2.411,3.064-2.423a1,1,0,0,1,1.294,1.525c-.072.061-1.781,1.508-3.646,2.856A23.4,23.4,0,0,1,4,22.681,4.179,4.179,0,0,1,2.218,23.237Z" transform="translate(0 10.523)" fill="#df1e93"/></g></svg>