<svg xmlns="http://www.w3.org/2000/svg" width="34" height="33.98" viewBox="0 0 34 33.98"><g transform="translate(0.238 0.233)"><g transform="translate(0.761 0.767)"><path d="M11.384-.233a70.424,70.424,0,0,1,8.128.4A6.943,6.943,0,0,1,23.121,1.7a5.587,5.587,0,0,1,1.828,3.745v.006a42.225,42.225,0,0,1-.42,8.871,6.263,6.263,0,0,1-1.689,3.3,5.875,5.875,0,0,1-3.513,1.392c-.8.09-1.851.1-2.967.113a18.478,18.478,0,0,0-3.829.259,6.245,6.245,0,0,0-.892.994c-.722.91-1.4,1.77-2.354,1.785H9.252c-1.436,0-2.057-1.127-2.511-1.95a4.674,4.674,0,0,0-.7-1.047A2.708,2.708,0,0,0,4.4,18.524,7.086,7.086,0,0,1,3.054,18.2C.958,17.414.381,15.48.07,13.507a36.543,36.543,0,0,1-.28-6.2c.148-3.437.829-5.5,2.083-6.294A9.907,9.907,0,0,1,5.875,0,54.728,54.728,0,0,1,11.384-.233ZM22.96,5.658A3.607,3.607,0,0,0,21.8,3.2a5.011,5.011,0,0,0-2.594-1.06,69.012,69.012,0,0,0-7.825-.378c-6.47,0-8.094.712-8.438.93-.163.1-.991.821-1.157,4.692A34.226,34.226,0,0,0,2.046,13.2c.349,2.214.892,2.825,1.711,3.133a5.4,5.4,0,0,0,.976.224,4.571,4.571,0,0,1,2.724,1.2,6.335,6.335,0,0,1,1.035,1.5c.354.642.508.857.677.9a7.438,7.438,0,0,0,.9-1.018A4.617,4.617,0,0,1,11.856,17.5a17.073,17.073,0,0,1,4.483-.376c1.064-.011,2.068-.022,2.764-.1,2.148-.241,2.961-.981,3.479-3.165A40.847,40.847,0,0,0,22.96,5.658Z" transform="translate(-0.761 -0.767)" fill="#df1e93"/><path d="M13.285,8.848l-.085,0a1.012,1.012,0,0,1-.114-.013,1,1,0,0,1-.379-.068,1.756,1.756,0,0,1-1.164-2.021,1.805,1.805,0,0,1,1.941-1.36A1.593,1.593,0,0,1,15,7.134,1.78,1.78,0,0,1,13.285,8.848Z" transform="translate(4.205 1.607)" fill="#df1e93"/><path d="M9.195,8.848l-.085,0A1.012,1.012,0,0,1,9,8.833a1,1,0,0,1-.379-.068A1.756,1.756,0,0,1,7.453,6.744a1.805,1.805,0,0,1,1.941-1.36,1.593,1.593,0,0,1,1.511,1.75A1.78,1.78,0,0,1,9.195,8.848Z" transform="translate(2.475 1.607)" fill="#df1e93"/><path d="M5.115,8.848l-.085,0a1.012,1.012,0,0,1-.114-.013,1,1,0,0,1-.379-.068A1.756,1.756,0,0,1,3.373,6.744a1.805,1.805,0,0,1,1.941-1.36,1.593,1.593,0,0,1,1.511,1.75A1.78,1.78,0,0,1,5.115,8.848Z" transform="translate(0.749 1.607)" fill="#df1e93"/></g><path d="M21.962,24.648h-.023c-.888-.021-1.391-.9-1.923-1.826a8.737,8.737,0,0,0-.521-.839,16.389,16.389,0,0,0-2.416-.131c-.8-.008-1.554-.016-2.132-.085a3.856,3.856,0,0,1-3.577-2.5,1,1,0,0,1,1.86-.735c.277.7.669,1.109,1.942,1.252h.007c.471.056,1.208.064,1.921.072a11.636,11.636,0,0,1,3.18.279c.627.224,1,.873,1.471,1.7.07.123.16.279.251.429.05-.116.1-.233.135-.327a4.432,4.432,0,0,1,.891-1.557,3.518,3.518,0,0,1,2.052-.908,3.464,3.464,0,0,0,.615-.139c.47-.176.766-.539.987-1.952a23.869,23.869,0,0,0,.183-3.984c-.105-2.6-.651-3.025-.656-3.029A5.515,5.515,0,0,0,24.1,9.915a1,1,0,1,1,.2-1.99,7.134,7.134,0,0,1,2.986.749c.975.62,1.478,2.09,1.581,4.627a25.738,25.738,0,0,1-.205,4.383c-.231,1.471-.664,2.916-2.259,3.514a5.128,5.128,0,0,1-.985.239,1.65,1.65,0,0,0-.985.364,3.514,3.514,0,0,0-.436.875C23.675,23.462,23.2,24.648,21.962,24.648Z" transform="translate(4.881 3.449)" fill="#df1e93"/><path d="M7.206,27.392c-1.2,0-1.667-1.15-1.977-1.911a3.552,3.552,0,0,0-.4-.8c-.064-.067-.294-.062-.612-.048a3.069,3.069,0,0,1-1.346-.157C1.4,23.888,1.229,22.781,1.01,21.38a23.747,23.747,0,0,1-.059-5.73,1,1,0,1,1,1.98.279,22.017,22.017,0,0,0,.055,5.142c.216,1.38.263,1.4.631,1.543l.018.007a2.168,2.168,0,0,0,.5.009,2.556,2.556,0,0,1,2.145.663,4.454,4.454,0,0,1,.8,1.431c.024.059.052.127.081.2.089-.153.175-.309.245-.434.51-.917.879-1.58,1.5-1.8a3.83,3.83,0,0,1,1.424-.093,6.6,6.6,0,0,0,2.251-.165,1.858,1.858,0,0,0,1.3-1.485,1,1,0,1,1,1.943.474,3.86,3.86,0,0,1-2.614,2.911,8.282,8.282,0,0,1-2.963.264c-.18-.008-.407-.017-.564-.016-.15.214-.377.621-.524.884-.593,1.065-1.061,1.906-1.923,1.928Z" transform="translate(0.441 6.355)" fill="#df1e93"/></g></svg>