<svg xmlns="http://www.w3.org/2000/svg" width="34.5" height="34.5" viewBox="0 0 34.5 34.5"><g transform="translate(0.49 0.49)"><path d="M16-1.25A17.245,17.245,0,0,1,28.2,28.2,17.25,17.25,0,1,1,9.285.106,17.143,17.143,0,0,1,16-1.25Zm0,32A14.75,14.75,0,0,0,26.43,5.57,14.75,14.75,0,0,0,5.57,26.43,14.653,14.653,0,0,0,16,30.75Z" transform="translate(0.76 0.76)" fill="#ff4f98"/><path d="M11.731,18.878c-.03-.177-.7-4.359,2.557-6.358l0,0a4.039,4.039,0,0,0,2.06-4.181,2.846,2.846,0,0,0-2.538-2.28,3.171,3.171,0,0,0-2.84.771A4.259,4.259,0,0,0,9.964,8.787a1.25,1.25,0,1,1-2.428-.595A6.741,6.741,0,0,1,9.2,5.069a5.593,5.593,0,0,1,4.937-1.492A5.321,5.321,0,0,1,18.8,7.818a6.132,6.132,0,0,1-.408,3.719,6.964,6.964,0,0,1-2.8,3.115c-1.809,1.11-1.4,3.784-1.4,3.811v-.006Z" transform="translate(3.384 1.694)" fill="#ff4f98"/><path d="M11.936,20.71h-.057a2.023,2.023,0,0,1-1.541-.672,2.123,2.123,0,0,1,1.6-3.508,2,2,0,0,1,1.476.572,1.9,1.9,0,0,1,.532,1.343A2.212,2.212,0,0,1,11.936,20.71Z" transform="translate(4.368 7.208)" fill="#ff4f98"/></g></svg>