<svg xmlns="http://www.w3.org/2000/svg" width="33.996" height="31.128" viewBox="0 0 33.996 31.128"><g transform="translate(0.258 -0.76)"><path d="M16.546,31.2c-.131,0-.262,0-.392-.008a6.641,6.641,0,0,1-1.54-.226c-1.07-.319-1.271-.965-1.3-1.321-.007-.1-.024-.156-.052-.177a1.17,1.17,0,0,0-.642-.115h-.147c-1.4,0-5.3.135-7.673.217-.968.033-1.732.06-2.05.068A2.68,2.68,0,0,1-.2,27.175v-.006A232.354,232.354,0,0,1,.585,3.289a1,1,0,0,1,1.988.223A229.416,229.416,0,0,0,1.8,27.081c.027.534.7.558.909.553.308-.008,1.069-.034,2.031-.067,2.625-.091,6.591-.228,7.893-.217a3.006,3.006,0,0,1,1.8.489,2.077,2.077,0,0,1,.815,1.224,5.527,5.527,0,0,0,1.313.133,5.265,5.265,0,0,0,1.339-.144,2.14,2.14,0,0,1,.771-1.159,3.062,3.062,0,0,1,1.82-.529c1.4-.033,5.9.115,8.586.2.777.026,1.391.046,1.657.052.209.005.893-.018.909-.538v-.006c.177-4.776.18-16.738-.618-22.748a1,1,0,1,1,1.983-.263c.813,6.127.813,18.249.634,23.083A2.427,2.427,0,0,1,32.718,29a3.1,3.1,0,0,1-2.034.618c-.274-.007-.892-.027-1.674-.053-2.491-.082-7.128-.235-8.471-.2a1.247,1.247,0,0,0-.663.125.462.462,0,0,0-.077.23c-.1.678-.665,1.125-1.67,1.333A8.1,8.1,0,0,1,16.546,31.2Z" transform="translate(0 0.692)" fill="#ff4f98"/><path d="M1.851,4.807A1,1,0,0,1,.866,3.629C1.19,1.833,4.048,1.3,5,1.315h.009a21.052,21.052,0,0,0,3.665-.29A20.024,20.024,0,0,1,11.5.76a7.148,7.148,0,0,1,5.282,2.11,1,1,0,0,1-1.379,1.448A5.216,5.216,0,0,0,11.5,2.76a18.562,18.562,0,0,0-2.553.245,23.005,23.005,0,0,1-3.994.309A4.543,4.543,0,0,0,3.7,3.553a2.007,2.007,0,0,0-.876.466A1,1,0,0,1,1.851,4.807Z" transform="translate(0.468)" fill="#ff4f98"/><path d="M26.641,5.774a1,1,0,0,1-.985-.833c-.152-.895-1.694-1.647-2.545-1.627a23.8,23.8,0,0,1-4.036-.308,19.443,19.443,0,0,0-2.6-.246A5.2,5.2,0,0,0,12.59,4.318,1,1,0,0,1,11.21,2.87,7.131,7.131,0,0,1,16.478.76a20.885,20.885,0,0,1,2.871.265,21.866,21.866,0,0,0,3.712.29,5.207,5.207,0,0,1,2.689.8,3.755,3.755,0,0,1,1.879,2.491,1,1,0,0,1-.987,1.168Z" transform="translate(4.706)" fill="#ff4f98"/><path d="M11.761,30.933l-.062,0a1,1,0,0,1-.937-1.059c.232-3.814.149-7.789.06-12-.1-4.734-.2-9.629.139-14.721a1,1,0,0,1,2,.134c-.335,5-.233,9.855-.135,14.545.089,4.251.173,8.266-.064,12.161A1,1,0,0,1,11.761,30.933Z" transform="translate(4.633 0.616)" fill="#ff4f98"/><path d="M11.568,8.311a1,1,0,0,1-.44-.1,3.712,3.712,0,0,0-1.427,0,13.21,13.21,0,0,1-1.417.1c-.462,0-1.1-.032-1.771-.066A21.411,21.411,0,0,0,3.979,8.2a1,1,0,1,1-.462-1.946,14.445,14.445,0,0,1,3.1-.005c.647.033,1.259.063,1.671.063a11.486,11.486,0,0,0,1.2-.086,4.576,4.576,0,0,1,2.521.189,1,1,0,0,1-.441,1.9Z" transform="translate(1.269 2.268)" fill="#ff4f98"/><path d="M5.49,12.031a6.869,6.869,0,0,1-2.04-.255,1,1,0,0,1,.6-1.908A11.768,11.768,0,0,0,7.8,9.894a17.048,17.048,0,0,1,3.933-.045,1,1,0,0,1-.321,1.974,15.812,15.812,0,0,0-3.443.064C7.1,11.96,6.268,12.031,5.49,12.031Z" transform="translate(1.269 3.79)" fill="#ff4f98"/><path d="M22.568,8.311a1,1,0,0,1-.414-.09,16.891,16.891,0,0,0-3.3.015c-.64.039-1.245.075-1.685.075a11.212,11.212,0,0,1-1.414-.093,2.231,2.231,0,0,0-.78-.017,1,1,0,0,1-.447-1.949,3.98,3.98,0,0,1,1.459-.02,9.351,9.351,0,0,0,1.182.08c.379,0,.954-.035,1.564-.072,2.15-.13,3.51-.184,4.261.165a1,1,0,0,1-.423,1.907Z" transform="translate(5.908 2.268)" fill="#ff4f98"/><path d="M16.49,12.031a6.869,6.869,0,0,1-2.04-.255,1,1,0,0,1,.6-1.908,11.768,11.768,0,0,0,3.747.026,17.048,17.048,0,0,1,3.933-.045,1,1,0,0,1-.321,1.974,15.812,15.812,0,0,0-3.443.064C18.1,11.96,17.268,12.031,16.49,12.031Z" transform="translate(5.908 3.79)" fill="#ff4f98"/><path d="M11.57,15.318a1,1,0,0,1-.183-.017c-.248-.038-1.428-.032-2.376-.027a33.585,33.585,0,0,1-5.477-.207,1,1,0,1,1,.43-1.953A37.3,37.3,0,0,0,9,13.274a21.216,21.216,0,0,1,2.754.061,1,1,0,0,1-.184,1.983Z" transform="translate(1.269 5.199)" fill="#ff4f98"/></g></svg>