<svg xmlns="http://www.w3.org/2000/svg" width="37.112" height="34" viewBox="0 0 37.112 34"><g transform="translate(0.259 -0.735)"><path d="M7.989,33.446a1,1,0,0,1-.352-.064,5.014,5.014,0,0,1-1.914-.212,5.507,5.507,0,0,1-2.985-2.538A16.183,16.183,0,0,1,.957,26.268,41.739,41.739,0,0,1-.252,15.222,30.4,30.4,0,0,1,.569,8.25C1.186,5.914,2.082,4.623,3.31,4.3a1.871,1.871,0,0,1,1.951.862c1.3,1.573,2.672,5.6,3.348,9.8.482,3,1.008,8.614-.886,12.59a1,1,0,0,1-1.806-.86c1.306-2.742,1.509-7.236.558-12.331A31.885,31.885,0,0,0,4.907,8.715,8.108,8.108,0,0,0,3.635,6.341,4.94,4.94,0,0,0,2.5,8.761a28.836,28.836,0,0,0-.755,6.5,39.669,39.669,0,0,0,1.14,10.491c.847,3.148,2.057,5.1,3.407,5.506a2.246,2.246,0,0,0,2.369-.427c.772-.718,2.075-2.822,2.137-8.845A63.534,63.534,0,0,0,9.258,8.325a1,1,0,0,1,.808-1.2L33.9,3.054a1,1,0,0,1,1.151.8c.01.055,1.024,5.542,1.521,11.174a49.246,49.246,0,0,1,.176,8.162c-.258,3-1,4.67-2.331,5.245a65.88,65.88,0,0,1-10.942,3.091A89.265,89.265,0,0,1,8.012,33.446ZM11.429,8.92A64.9,64.9,0,0,1,12.8,22c-.044,4.3-.7,7.427-1.953,9.31a92.972,92.972,0,0,0,12.225-1.742A65.819,65.819,0,0,0,33.631,26.6c.192-.083,1.861-1.111.953-11.393C34.218,11.061,33.568,7,33.26,5.193Z" transform="translate(0 1.289)" fill="#df1e93"/><path d="M2.621,7.327a1,1,0,0,1-.441-1.9C4.123,4.475,9.835,3.1,14.635,2.153c2.78-.546,5.3-.96,7.3-1.2,3.215-.38,4.192-.2,4.684,0C29.178,2,31.241,5.049,31.327,5.178A1,1,0,0,1,29.665,6.29c-.017-.026-1.811-2.673-3.8-3.48-.062-.024-.705-.224-3.749.14-1.948.232-4.416.639-7.139,1.175C9.559,5.191,4.547,6.495,3.061,7.224A1,1,0,0,1,2.621,7.327Z" transform="translate(1.051 0)" fill="#df1e93"/><path d="M0,3.276a1,1,0,0,1-.986-.841A1,1,0,0,1-.159,1.289L13.982-.987a1,1,0,0,1,1.146.828A1,1,0,0,1,14.3.987L.159,3.264A1.007,1.007,0,0,1,0,3.276Z" transform="translate(16.377 11.83)" fill="#df1e93"/><path d="M11.295,22.134a1.765,1.765,0,0,1-1.057-.261c-.481-.347-.615-.972-.684-1.935-.056-.785-.05-1.725-.034-2.376A21.1,21.1,0,0,1,9.9,13.58c.221-.525.752-.761,1.6-.989.532-.144,1.25-.3,2.077-.436a30.165,30.165,0,0,1,4.246-.464,1.778,1.778,0,0,1,1.229.316c.341.291.489.73.608,1.808.068.617.122,1.435.15,2.306.088,2.7-.063,3.521-.212,3.859a1,1,0,0,1-.116.214c-.232.325-.6.507-1.571.781-.578.162-1.355.348-2.189.522A27.9,27.9,0,0,1,11.295,22.134Zm.416-7.523c-.068.513-.151,1.54-.187,2.782a21.576,21.576,0,0,0,.053,2.732,36.536,36.536,0,0,0,6.205-1.2,26.075,26.075,0,0,0,.027-2.689,25.152,25.152,0,0,0-.183-2.546,29.857,29.857,0,0,0-3.341.371A19.251,19.251,0,0,0,11.711,14.611Z" transform="translate(5.461 6.125)" fill="#df1e93"/><path d="M0,1.717A1,1,0,0,1-.985.889,1,1,0,0,1-.172-.268L3.944-.985A1,1,0,0,1,5.1-.172,1,1,0,0,1,4.288.985L.172,1.7A1.007,1.007,0,0,1,0,1.717Z" transform="translate(27.275 17.864)" fill="#df1e93"/><path d="M0,1.686A1,1,0,0,1-.985.858,1,1,0,0,1-.172-.3L3.757-.985a1,1,0,0,1,1.157.813A1,1,0,0,1,4.1.985L.172,1.671A1.006,1.006,0,0,1,0,1.686Z" transform="translate(27.462 22.759)" fill="#df1e93"/></g></svg>