<svg xmlns="http://www.w3.org/2000/svg" width="34.002" height="34.005" viewBox="0 0 34.002 34.005"><g transform="translate(-0.768 -0.777)"><path d="M19.875.777c2.3,0,5.608.023,8.262.131,2.22.094,3.673.578,4.713,1.568,1.095,1.042,1.65,2.6,1.748,4.907.265,6.6.173,14.254.063,20.18-.052,2.945-.632,4.638-1.939,5.66-1.259.985-3.042,1.195-5.422,1.384-1.448.112-4.114.174-7.509.174-4.351,0-9.094-.1-12.084-.251a8.3,8.3,0,0,1-4.648-1.178c-1.227-.933-1.855-2.48-2.036-5.018a190.723,190.723,0,0,1,.029-20.2q0-.024,0-.048c.177-2.46.879-4.215,2.147-5.365A7.648,7.648,0,0,1,8.067,1.019C10.242.876,15.1.777,19.875.777Zm-.084,32c3.344,0,5.955-.06,7.352-.168,2.028-.161,3.527-.324,4.347-.965.982-.768,1.143-2.514,1.172-4.121.11-5.9.2-13.512-.062-20.062-.074-1.753-.433-2.878-1.129-3.541a5.172,5.172,0,0,0-3.418-1.019c-2.619-.107-5.893-.13-8.178-.13-4.739,0-9.54.1-11.677.238A5.825,5.825,0,0,0,4.544,4.205a5.769,5.769,0,0,0-1.493,4q0,.023,0,.046a191.482,191.482,0,0,0-.031,19.945c.175,2.453.76,3.2,1.251,3.569.695.528,1.825.683,3.541.773C10.767,32.684,15.471,32.781,19.791,32.781Z" fill="#ff4f98"/><path d="M12.436,6.793c-4.08,0-7.773-.01-10.11-.043a1,1,0,1,1,.029-2c4.014.057,12.072.044,19.183.033,4.455-.007,8.663-.014,11.2,0a1,1,0,1,1-.01,2c-2.529-.012-6.734-.005-11.185,0C18.55,6.788,15.391,6.793,12.436,6.793Z" transform="translate(0.321 2.238)" fill="#ff4f98"/><path d="M11.021,25.561a1,1,0,0,1-.967-1.256c.587-2.223,1.474-6.39,2.256-10.066.469-2.2.912-4.287,1.269-5.861a1,1,0,0,1,1.95.443c-.354,1.56-.8,3.636-1.263,5.834-.825,3.88-1.678,7.892-2.278,10.162A1,1,0,0,1,11.021,25.561Z" transform="translate(5.21 3.844)" fill="#ff4f98"/><path d="M16.8,20.728a1,1,0,0,1-.718-1.7c.008-.008.762-.787,1.544-1.684A12.745,12.745,0,0,0,19.2,15.3a12.776,12.776,0,0,0-1.574-2.05c-.783-.9-1.532-1.67-1.539-1.678a1,1,0,1,1,1.436-1.392c.036.037.89.92,1.759,1.926,1.811,2.1,1.962,2.729,1.962,3.194S21.088,16.4,19.277,18.5c-.869,1.007-1.723,1.889-1.759,1.926A1,1,0,0,1,16.8,20.728Z" transform="translate(8.466 5.128)" fill="#ff4f98"/><path d="M8.669,20.728a1,1,0,0,1-.718-.3c-.036-.037-.89-.92-1.759-1.926C4.382,16.4,4.23,15.769,4.23,15.3c0-.45.152-1.1,1.963-3.2.869-1.005,1.724-1.885,1.76-1.921a1,1,0,0,1,1.433,1.4c-.008.008-.762.784-1.545,1.68A12.426,12.426,0,0,0,6.273,15.3a12.7,12.7,0,0,0,1.57,2.046c.783.9,1.537,1.676,1.544,1.684a1,1,0,0,1-.718,1.7Z" transform="translate(1.949 5.128)" fill="#ff4f98"/></g></svg>