<svg xmlns="http://www.w3.org/2000/svg" width="34.003" height="33.927" viewBox="0 0 34.003 33.927"><g transform="translate(-0.755 -0.796)"><path d="M11.148,8.758a3.918,3.918,0,0,1,1.177.2,1,1,0,0,1,.184.046,19.32,19.32,0,0,1,4.536,2.81l.009.008a1.987,1.987,0,0,1,.789,1.4,1.879,1.879,0,0,1-.656,1.418,13.369,13.369,0,0,1-5.009,2.978,4.088,4.088,0,0,1-1.162.191,1.988,1.988,0,0,1-2.038-1.566,16.419,16.419,0,0,1,.04-5.778A2.087,2.087,0,0,1,11.148,8.758Zm.842,2.189a1,1,0,0,1-.142-.038,1.491,1.491,0,0,0-.827-.137.517.517,0,0,0-.055.153,14.812,14.812,0,0,0-.055,4.809.6.6,0,0,0,.025.075,1.712,1.712,0,0,0,.676-.1A11.54,11.54,0,0,0,15.7,13.3,18.63,18.63,0,0,0,11.989,10.947Z" transform="translate(4.481 4.47)" fill="#ff4f98"/><path d="M17.511.8c4.9,0,9.276.087,11.423.227,1.641.108,3.292.389,4.261,1.7.762,1.034.944,2.445,1.135,4.48A110.843,110.843,0,0,1,34.2,28.092c-.255,2.071-.609,3.476-1.668,4.527C31.5,33.642,29.958,34.18,27.2,34.478c-1.532.163-3.983.245-7.286.245-4.71,0-9.954-.173-12.5-.335a7.7,7.7,0,0,1-4.186-1.243,6.172,6.172,0,0,1-2.21-4.656C.588,23.97.759,12.3,1.013,7.7c.116-2.064.276-3.734,1.176-4.881.865-1.1,2.268-1.627,4.843-1.807C9.021.875,12.937.8,17.511.8Zm2.4,31.927c3.187,0,5.633-.081,7.073-.234,2.236-.241,3.475-.626,4.142-1.288.648-.644.891-1.716,1.092-3.351a110.342,110.342,0,0,0,.122-20.458,8.035,8.035,0,0,0-.754-3.479c-.286-.388-.821-.764-2.782-.894C26.729,2.883,22.3,2.8,17.511,2.8c-4.532,0-8.4.077-10.342.207-1.917.135-2.936.447-3.406,1.046-.49.626-.643,1.8-.753,3.758-.245,4.433-.416,16.136,0,20.492.31,3.227,1.771,3.911,4.535,4.093C10.052,32.552,15.24,32.723,19.909,32.723Z" transform="translate(0 0)" fill="#ff4f98"/><path d="M22.85,6.837c-4,0-8.177-.022-12.084-.043C7.54,6.776,4.493,6.76,2.04,6.76a1,1,0,1,1,0-2c2.458,0,5.508.016,8.736.033,7.527.04,16.058.086,22.364-.033a1,1,0,0,1,.038,2C30.129,6.817,26.566,6.837,22.85,6.837Z" transform="translate(0.159 2.225)" fill="#ff4f98"/><path d="M22.713,19.287c-3.94,0-8.04-.022-11.876-.043-3.2-.017-6.225-.034-8.686-.034a1,1,0,1,1,0-2c2.467,0,5.493.016,8.7.034,7.4.04,15.779.085,22.075-.033a1,1,0,0,1,.038,2C29.913,19.267,26.382,19.287,22.713,19.287Z" transform="translate(0.221 9.215)" fill="#ff4f98"/><path d="M0,5.2a1,1,0,0,1-1-1V0A1,1,0,0,1,0-1,1,1,0,0,1,1,0V4.2A1,1,0,0,1,0,5.2Z" transform="translate(9.6 2.77)" fill="#ff4f98"/><path d="M0,5.216a1,1,0,0,1-1-1V0A1,1,0,0,1,0-1,1,1,0,0,1,1,0V4.216A1,1,0,0,1,0,5.216Z" transform="translate(17.751 2.677)" fill="#ff4f98"/><path d="M0,5.216a1,1,0,0,1-1-1V0A1,1,0,0,1,0-1,1,1,0,0,1,1,0V4.216A1,1,0,0,1,0,5.216Z" transform="translate(25.964 2.677)" fill="#ff4f98"/><path d="M0,5.231a1,1,0,0,1-1-1V0A1,1,0,0,1,0-1,1,1,0,0,1,1,0V4.231A1,1,0,0,1,0,5.231Z" transform="translate(9.6 28.596)" fill="#ff4f98"/><path d="M0,5.231a1,1,0,0,1-1-1V0A1,1,0,0,1,0-1,1,1,0,0,1,1,0V4.231A1,1,0,0,1,0,5.231Z" transform="translate(17.751 28.596)" fill="#ff4f98"/><path d="M0,5.231a1,1,0,0,1-1-1V0A1,1,0,0,1,0-1,1,1,0,0,1,1,0V4.231A1,1,0,0,1,0,5.231Z" transform="translate(25.964 28.596)" fill="#ff4f98"/></g></svg>