<?xml version="1.0" encoding="UTF-8"?>
<svg id="uuid-b40f31ba-ceca-4666-b4b1-c754c7086c55" data-name="desz" xmlns="http://www.w3.org/2000/svg" viewBox="0 0 2661.21561 630.439">
  <defs>
    <style>
      .uuid-9b1f270b-6a3c-4d69-a11f-e1da89ad694e {
        fill: #003253;
      }

      .uuid-199b481c-7263-409e-928e-67140c46e743 {
        fill: #00b8fa;
      }

      .uuid-4c9f3711-fa8c-47f4-9ea7-b1e2e0897236 {
        fill: #0095f8;
      }

      .uuid-a6290472-b142-42dc-a70e-0958df2dae60 {
        fill: #007aca;
      }

      .uuid-b1e195a8-90f1-4c38-840b-1f11e9ede16f {
        fill: #f74d93;
      }

      .uuid-a9229981-c51f-4634-b786-9e386e669a02 {
        fill: #ff4f98;
      }

      .uuid-90d394cf-adf9-4c47-ba97-7d8a27bfdb71 {
        fill: #df0093;
      }
    </style>
  </defs>
  <g>
    <path class="uuid-9b1f270b-6a3c-4d69-a11f-e1da89ad694e" d="M721.35654,429.78348c-13.40959-27.51148-27.15931-59.10152-41.24013-94.76411-14.08684-35.66258-26.88841-73.92883-38.42276-114.79873h51.70894c2.94981,11.75709,6.36617,24.38107,10.2551,37.86591,3.88893,13.49086,8.04575,26.98473,12.47047,40.46957,4.42772,13.49387,8.98488,26.5844,13.68049,39.26858,4.69561,12.6902,9.05411,24.11017,13.07849,34.25992,4.02137-10.14975,8.31665-21.56972,12.87381-34.25992,4.55715-12.68418,9.05411-25.77471,13.47882-39.26858,4.4217-13.48484,8.64776-26.97871,12.67214-40.46957,4.01836-13.48484,7.50696-26.10882,10.46279-37.86591h50.09859c-11.53435,40.8699-24.34194,79.13614-38.42276,114.79873-14.08684,35.66258-27.83054,67.25263-41.24013,94.76411h-41.45384Z"/>
    <path class="uuid-9b1f270b-6a3c-4d69-a11f-e1da89ad694e" d="M923.91508,158.9158c0,9.08421-2.94078,16.29619-8.81331,21.63594-5.87855,5.34879-12.82264,8.01565-20.83528,8.01565-8.28354,0-15.3661-2.66687-21.23862-8.01565-5.87855-5.33976-8.81331-12.55174-8.81331-21.63594,0-9.34909,2.93476-16.6905,8.81331-22.03928,5.87253-5.33976,12.95508-8.01264,21.23862-8.01264,8.01264,0,14.95673,2.67289,20.83528,8.01264,5.87253,5.34879,8.81331,12.6902,8.81331,22.03928Zm-5.20732,270.86768h-48.48522V220.22065h48.48522v209.56283Z"/>
    <path class="uuid-9b1f270b-6a3c-4d69-a11f-e1da89ad694e" d="M1024.0039,394.92457c12.82264,0,22.16871-1.5351,28.04726-4.60832,5.87253-3.07021,8.81632-8.34675,8.81632-15.82964,0-6.94108-3.14245-12.68418-9.41531-17.22929-6.28189-4.53909-16.6303-9.47852-31.05426-14.82429-8.81632-3.20566-16.89819-6.61299-24.24261-10.21898-7.35044-3.60599-13.69253-7.81398-19.03229-12.62097-5.34578-4.80698-9.55377-10.61931-12.62097-17.43096-3.07623-6.81165-4.60832-15.15539-4.60832-25.04327,0-19.23095,7.07352-34.38935,21.23561-45.47822,14.15607-11.07984,33.39003-16.62729,57.69886-16.62729,12.28385,0,24.04395,1.13778,35.26225,3.40432,11.2183,2.27256,19.63429,4.47588,25.24494,6.61299l-8.81632,39.26557c-5.34578-2.40199-12.15743-4.60531-20.43495-6.60998-8.28354-2.00467-17.90052-3.00399-28.85093-3.00399-9.88487,0-17.90052,1.67055-24.04094,5.00865-6.14945,3.34111-9.21665,8.4822-9.21665,15.4263,0,3.47355,.602,6.54677,1.803,9.21364,1.204,2.6759,3.26887,5.14712,6.21266,7.41365,2.93476,2.27256,6.81165,4.54511,11.61863,6.81165,4.80698,2.27256,10.68252,4.60832,17.62962,7.01332,11.48318,4.27421,21.23862,8.4822,29.25127,12.62097,8.01264,4.14478,14.62563,8.81632,19.83596,14.02363,5.20732,5.21033,9.01498,11.1581,11.41696,17.83129,2.405,6.67921,3.609,14.69486,3.609,24.04094,0,20.03462-7.41365,35.19904-22.24096,45.47822-14.82429,10.28219-35.99971,15.42931-63.50818,15.42931-18.43329,0-33.25759-1.54112-44.47589-4.60832-11.22131-3.07021-19.10453-5.54143-23.64362-7.41365l8.41598-40.46957c7.21198,2.94078,15.82663,5.74611,25.84394,8.41297,10.01731,2.6759,21.43728,4.00933,34.25992,4.00933Z"/>
    <path class="uuid-9b1f270b-6a3c-4d69-a11f-e1da89ad694e" d="M1264.1725,319.59308c0-21.90082-2.74212-37.72745-8.21431-47.48289-5.47822-9.74641-15.6972-14.62563-30.65393-14.62563-5.34578,0-11.2183,.40334-17.62962,1.204-6.41132,.80066-11.2183,1.47189-14.42396,2.00166v169.09327h-48.48522V227.0323c9.34909-2.66687,21.56972-5.20732,36.66492-7.61231,15.08917-2.405,31.05426-3.60599,47.88322-3.60599,14.42396,0,26.24427,1.87223,35.46091,5.61066,9.21364,3.74144,16.89217,8.68388,23.03861,14.82429,2.93777-2.1341,6.67319-4.40665,11.2183-6.81165,4.53909-2.405,9.61698-4.60832,15.22763-6.60998,5.61066-2.00467,11.55241-3.6692,17.83129-5.00865,6.27286-1.33644,12.62097-2.00467,19.03229-2.00467,16.29017,0,29.71481,2.34179,40.27091,7.01332,10.54707,4.67454,18.83062,11.2183,24.8416,19.63128,6.01099,8.41598,10.14975,18.57175,12.42231,30.45527,2.26654,11.88652,3.40432,24.91083,3.40432,39.0669v117.80272h-48.48221v-110.1904c0-21.90082-2.67289-37.72745-8.01565-47.48289-5.34578-9.74641-15.62496-14.62563-30.85259-14.62563-7.75077,0-15.09519,1.27323-22.03627,3.80766-6.95011,2.54346-12.16044,5.00865-15.62797,7.41365,2.1341,6.67921,3.60599,13.76176,4.40665,21.23561,.80066,7.48288,1.204,15.49553,1.204,24.04094v115.80106h-48.48522v-110.1904Z"/>
    <path class="uuid-9b1f270b-6a3c-4d69-a11f-e1da89ad694e" d="M1549.7802,215.01334c16.0283,0,29.51314,2.00166,40.46957,6.00798,10.95041,4.00933,19.6975,9.61698,26.24728,16.83197,6.54075,7.21198,11.2183,15.96509,14.02363,26.24427,2.80533,10.2852,4.20799,21.57574,4.20799,33.85959v127.01936c-7.48288,1.60132-18.77041,3.54278-33.85959,5.80932-15.09519,2.26654-32.12582,3.40432-51.08888,3.40432-12.55776,0-24.04094-1.20099-34.45858-3.60599-10.41764-2.40199-19.30319-6.27286-26.64761-11.61863-7.35044-5.33976-13.09053-12.28385-17.22929-20.83528-4.14478-8.54843-6.20965-19.0955-6.20965-31.65626,0-12.02198,2.33577-22.16871,7.01031-30.45226,4.67153-8.27752,11.01964-15.02596,19.0353-20.23629,8.01264-5.20732,17.2925-8.94575,27.84559-11.2183,10.55008-2.26654,21.56972-3.40733,33.05893-3.40733,5.33976,0,10.95041,.34013,16.82896,1.00233,5.87253,.67123,12.15141,1.803,18.83363,3.40733v-8.01565c0-5.60765-.67123-10.95041-2.00467-16.02529-1.33945-5.07186-3.67522-9.54775-7.01332-13.42464-3.34111-3.86786-7.75077-6.87486-13.22297-9.01498-5.47822-2.1341-12.3591-3.20566-20.63361-3.20566-11.22131,0-21.50651,.80066-30.8556,2.405-9.3521,1.60132-16.96441,3.47355-22.83694,5.60765l-6.01099-39.26557c6.14042-2.13711,15.08917-4.2712,26.84627-6.41132,11.75107-2.13711,24.30281-3.20566,37.66424-3.20566Zm4.00632,180.7119c14.95673,0,26.30748-.80066,34.06126-2.405v-53.69254c-2.6759-.80066-6.54978-1.60132-11.62164-2.405-5.07788-.80066-10.68854-1.20099-16.82896-1.20099-5.34578,0-10.75476,.40033-16.22696,1.20099-5.47822,.80367-10.41764,2.27256-14.8273,4.40966-4.40665,2.14012-7.94943,5.14411-10.6163,9.01498-2.6759,3.87388-4.00933,8.75311-4.00933,14.62563,0,11.48619,3.60599,19.43262,10.82098,23.83927,7.21198,4.40966,16.95839,6.61299,29.24826,6.61299Z"/>
    <path class="uuid-9b1f270b-6a3c-4d69-a11f-e1da89ad694e" d="M1835.86949,394.92457c12.82264,0,22.16871-1.5351,28.04726-4.60832,5.87253-3.07021,8.81632-8.34675,8.81632-15.82964,0-6.94108-3.14245-12.68418-9.41531-17.22929-6.28189-4.53909-16.6303-9.47852-31.05426-14.82429-8.81632-3.20566-16.89819-6.61299-24.24261-10.21898-7.35044-3.60599-13.69253-7.81398-19.03229-12.62097-5.34578-4.80698-9.55377-10.61931-12.62097-17.43096-3.07623-6.81165-4.60832-15.15539-4.60832-25.04327,0-19.23095,7.07352-34.38935,21.23561-45.47822,14.15607-11.07984,33.39003-16.62729,57.69886-16.62729,12.28385,0,24.04395,1.13778,35.26225,3.40432,11.2183,2.27256,19.63429,4.47588,25.24494,6.61299l-8.81632,39.26557c-5.34578-2.40199-12.15743-4.60531-20.43495-6.60998-8.28354-2.00467-17.90052-3.00399-28.85093-3.00399-9.88487,0-17.90052,1.67055-24.04094,5.00865-6.14945,3.34111-9.21665,8.4822-9.21665,15.4263,0,3.47355,.602,6.54677,1.803,9.21364,1.204,2.6759,3.26887,5.14712,6.21266,7.41365,2.93476,2.27256,6.81165,4.54511,11.61863,6.81165,4.80698,2.27256,10.68252,4.60832,17.62962,7.01332,11.48318,4.27421,21.23862,8.4822,29.25127,12.62097,8.01264,4.14478,14.62563,8.81632,19.83596,14.02363,5.20732,5.21033,9.01498,11.1581,11.41696,17.83129,2.405,6.67921,3.609,14.69486,3.609,24.04094,0,20.03462-7.41365,35.19904-22.24096,45.47822-14.82429,10.28219-35.99971,15.42931-63.50818,15.42931-18.43329,0-33.25759-1.54112-44.47589-4.60832-11.22131-3.07021-19.10453-5.54143-23.64362-7.41365l8.41598-40.46957c7.21198,2.94078,15.82663,5.74611,25.84394,8.41297,10.01731,2.6759,21.43728,4.00933,34.25992,4.00933Z"/>
    <path class="uuid-9b1f270b-6a3c-4d69-a11f-e1da89ad694e" d="M2009.28212,158.9158c0,9.08421-2.94078,16.29619-8.81331,21.63594-5.87855,5.34879-12.82264,8.01565-20.83528,8.01565-8.28354,0-15.3661-2.66687-21.23862-8.01565-5.87855-5.33976-8.81331-12.55174-8.81331-21.63594,0-9.34909,2.93476-16.6905,8.81331-22.03928,5.87253-5.33976,12.95508-8.01264,21.23862-8.01264,8.01264,0,14.95673,2.67289,20.83528,8.01264,5.87253,5.34879,8.81331,12.6902,8.81331,22.03928Zm-5.20732,270.86768h-48.48522V220.22065h48.48522v209.56283Z"/>
    <path class="uuid-9b1f270b-6a3c-4d69-a11f-e1da89ad694e" d="M2226.69205,408.54787c0,33.38702-8.4822,57.8313-25.4436,73.32682-16.96742,15.48951-42.9438,23.24028-77.93515,23.24028-12.82264,0-25.31116-1.07156-37.46558-3.20566-12.15743-2.14313-23.17707-4.94845-33.05592-8.41598l8.81632-41.27023c8.27451,3.46753,17.69283,6.27286,28.24893,8.41297,10.54707,2.13711,21.96704,3.20566,34.25691,3.20566,19.49583,0,33.39003-4.00632,41.67357-12.01897,8.27752-8.01565,12.42231-19.90519,12.42231-35.66258v-8.01264c-4.80999,2.40199-11.1581,4.80698-19.0353,7.21198-7.8802,2.40199-16.89819,3.60599-27.04493,3.60599-13.36143,0-25.58206-2.13711-36.66492-6.41132-11.08586-4.2712-20.57341-10.55008-28.44759-18.83363-7.88321-8.27752-14.02363-18.63195-18.43329-31.05426-4.40665-12.4193-6.60998-26.77704-6.60998-43.07323,0-15.22763,2.33577-29.25127,7.01031-42.0739,4.67153-12.81963,11.48318-23.77004,20.43495-32.85425,8.94876-9.07819,19.83596-16.16074,32.6586-21.23862,12.82264-5.07186,27.37904-7.61231,43.67523-7.61231,15.7574,0,30.71413,1.20099,44.87622,3.60599,14.15607,2.405,26.17805,4.94544,36.06292,7.61231v181.51557Zm-135.03201-88.95479c0,20.57341,4.46986,35.59937,13.42163,45.07789,8.94575,9.48454,20.49816,14.2253,34.66025,14.2253,7.74475,0,15.02596-1.06554,21.83761-3.20566,6.81165-2.1341,12.35308-4.67153,16.6303-7.61231v-108.58908c-3.47656-.80066-7.75077-1.5351-12.82264-2.20333-5.07788-.66521-11.4892-1.00233-19.23396-1.00233-17.62962,0-31.12349,5.80932-40.46957,17.43096-9.35511,11.61863-14.02363,26.9155-14.02363,45.87855Z"/>
    <path class="uuid-9b1f270b-6a3c-4d69-a11f-e1da89ad694e" d="M2276.4174,227.0323c9.34909-2.66687,21.50049-5.20732,36.46325-7.61231,14.95673-2.405,31.5178-3.60599,49.68622-3.60599,17.09083,0,31.38536,2.34179,42.87457,7.01332,11.48318,4.67454,20.63662,11.2183,27.44827,19.63128,6.81165,8.41598,11.61863,18.57175,14.42396,30.45527,2.80533,11.88652,4.20799,24.91083,4.20799,39.0669v117.80272h-48.48522v-110.1904c0-11.2183-.73745-20.76605-2.20333-28.64926-1.47189-7.87719-3.87689-14.28851-7.21198-19.23396-3.34412-4.93942-7.88321-8.54542-13.6233-10.81797-5.74912-2.26654-12.75943-3.40733-21.03695-3.40733-6.14945,0-12.56077,.40334-19.23396,1.204-6.67921,.80066-11.61863,1.47189-14.82429,2.00166v169.09327h-48.48522V227.0323Z"/>
  </g>
  <g>
    <path class="uuid-4c9f3711-fa8c-47f4-9ea7-b1e2e0897236" d="M494.53488,346.71316l-38.14453-95.80276-71.62446,58.27826c-3.51325,2.84931-7.84243,4.50399-12.35998,4.7253-4.51777,.22131-8.9871-1.00452-12.76127-3.49775l-85.89295-56.72626c-11.73931-7.69366-23.51328-6.69086-31.27605-.36297l-.0521,.04069c-7.55545,6.13779-11.11692,17.65321-5.82649,30.55097l43.82893,110.10806,.02067-.01679-.02519-.06308,80.06581-65.0421c3.51669-2.85792,7.85276-4.51777,12.37742-4.73887,4.52466-.22131,9.0026,1.00969,12.7785,3.51131l72.82231,48.40978c10.88269,7.25534,22.21188,6.62821,29.56755,1.26846l.90011-.73197c7.33069-5.98214,10.68463-17.28916,5.60173-29.91028Z"/>
    <path class="uuid-b1e195a8-90f1-4c38-840b-1f11e9ede16f" d="M417.0286,111.33404c.0056-.00474,.01055-.0099,.01593-.01464l-.14726,.1197c-.00538,.00495-.01076,.01012-.01615,.01485l.14747-.11991Z"/>
    <path class="uuid-4c9f3711-fa8c-47f4-9ea7-b1e2e0897236" d="M319.20301,491.33044c-.08633-.23681-.18084-.47535-.27341-.71367,.09236,.23811,.18708,.47686,.27341,.71367Z"/>
    <path class="uuid-4c9f3711-fa8c-47f4-9ea7-b1e2e0897236" d="M319.60969,492.50762c-.10915-.33477-.2267-.67148-.34812-1.00883,.12121,.33735,.23897,.67427,.34812,1.00883Z"/>
    <path class="uuid-4c9f3711-fa8c-47f4-9ea7-b1e2e0897236" d="M319.96318,493.65746c-.10614-.36835-.22045-.73886-.34123-1.11066,.12078,.37201,.23488,.7423,.34123,1.11066Z"/>
    <path class="uuid-90d394cf-adf9-4c47-ba97-7d8a27bfdb71" d="M456.37743,250.87811l-2.0338-5.11648-41.76886-105.05682c-5.06137-12.01014-2.45856-23.21748,4.30636-29.25086L242.47563,253.32698c7.76277-6.32789,19.53674-7.33069,31.27605,.36297l85.89295,56.72626c3.77417,2.49322,8.2435,3.71906,12.76127,3.49775,4.51755-.22131,8.84673-1.876,12.35998-4.7253l71.62446-58.27826-.01292-.03229Z"/>
    <path class="uuid-90d394cf-adf9-4c47-ba97-7d8a27bfdb71" d="M536.43829,174.13652c-.89731-4.39613-3.50464-8.25599-7.24759-10.73091l-79.72071-52.66296c-10.87494-7.45168-22.40672-7.10593-29.73741-1.60797l-2.6971,2.17848c-.04693,.0409-.09171,.08461-.13821,.12594l.14726-.1197c-.00538,.00474-.01033,.0099-.01593,.01464l-.14747,.11991c-6.76492,6.03338-9.36772,17.24072-4.30636,29.25086l41.76886,105.05682,2.02476,5.0928,.02196,.05597,74.13168-60.27439c1.33283-1.08504,2.49817-2.36082,3.4577-3.78623,2.47234-3.74446,3.3576-8.31713,2.45856-12.71326Z"/>
    <path class="uuid-a6290472-b142-42dc-a70e-0958df2dae60" d="M318.01334,488.30094l.72056,1.80861c.06889,.16986,.13003,.338,.19569,.50721-.05877-.15178-.11302-.30269-.17438-.4549l-.74187-1.86093Z"/>
    <path class="uuid-a6290472-b142-42dc-a70e-0958df2dae60" d="M320.01076,493.83206c-.01658-.05834-.03057-.11604-.04758-.1746,.01701,.05856,.031,.11625,.04758,.1746Z"/>
    <path class="uuid-a6290472-b142-42dc-a70e-0958df2dae60" d="M319.62196,492.5468c-.00431-.01313-.00797-.02605-.01227-.03918,.00431,.01313,.00797,.02605,.01227,.03918Z"/>
    <path class="uuid-a6290472-b142-42dc-a70e-0958df2dae60" d="M319.26157,491.49879c-.02024-.0564-.03789-.11195-.05856-.16835,.02067,.0564,.03832,.11195,.05856,.16835Z"/>
    <path class="uuid-4c9f3711-fa8c-47f4-9ea7-b1e2e0897236" d="M320.5225,495.88029c-.03445-.15953-.07449-.32099-.11173-.48138-.04715-.20581-.09236-.41077-.14424-.61744-.07923-.31496-.16599-.63165-.25576-.94941-.01658-.05834-.03057-.11604-.04758-.1746-.10635-.36835-.22045-.73865-.34123-1.11066-.00431-.01313-.00797-.02605-.01227-.03918-.10915-.33455-.22691-.67148-.34812-1.00883-.02024-.0564-.03789-.11195-.05856-.16835-.08633-.23681-.18106-.47557-.27341-.71367-.06566-.16921-.1268-.33735-.19569-.50721l-.72056-1.80861-37.57079-94.23268-.01658-.04155-65.41498,53.21668c-1.32121,1.0859-2.47471,2.36168-3.42326,3.78644-2.47126,3.74123-3.35523,8.31089-2.45706,12.70401,.89817,4.39312,3.50464,8.25039,7.24608,10.72295l66.99582,44.29481c11.1688,7.29625,22.2685,6.41444,29.39166,1.08935l.43229-.36319c.00646-.00517,.01249-.01055,.01873-.01572l.97589-.79311c2.49839-2.29645,4.45512-5.21616,5.6562-8.61573,1.45361-4.11432,1.80302-8.9266,.67514-14.1729Z"/>
    <path class="uuid-4c9f3711-fa8c-47f4-9ea7-b1e2e0897236" d="M488.03303,377.35541c-7.35566,5.35975-18.68486,5.98688-29.56755-1.26846l-72.82231-48.40978c-3.7759-2.50162-8.25384-3.73262-12.7785-3.51131-4.52466,.2211-8.86073,1.88095-12.37742,4.73887l-80.06581,65.0421,.02519,.06308-.02067,.01679,.01658,.04155,37.57079,94.23268,.74187,1.86093c.06136,.15221,.11561,.30312,.17438,.4549,.09257,.23832,.18708,.47686,.27341,.71367,.02067,.0564,.03832,.11195,.05856,.16835,.12142,.33735,.23897,.67406,.34812,1.00883,.00431,.01313,.00797,.02605,.01227,.03918,.12078,.3718,.23509,.7423,.34123,1.11066,.01701,.05856,.031,.11625,.04758,.1746,.08956,.31776,.17675,.63466,.25576,.94941,.0521,.20689,.09688,.41163,.14424,.61744,.03703,.16039,.0775,.32185,.11173,.48138,.98213,4.56815,.84327,8.80669-.16835,12.54254l-.03423,.124c-.06093,.22024-.12508,.43875-.19225,.65554-.08956,.2859-.18041,.57115-.2803,.85081-1.20108,3.39958-3.15781,6.31928-5.6562,8.61573l100.66736-81.8079,74.01865-60.15167c-.27449,.22325-.55716,.43703-.84414,.64607Z"/>
  </g>
  <g>
    <path class="uuid-199b481c-7263-409e-928e-67140c46e743" d="M494.53488,346.71316l-38.14453-95.80276-71.62446,58.27826c-3.51325,2.84931-7.84243,4.50399-12.35998,4.7253-4.51777,.22131-8.9871-1.00452-12.76127-3.49775l-85.89295-56.72626c-11.73931-7.69366-23.51328-6.69086-31.27605-.36297l-.0521,.04069c-7.55545,6.13779-11.11692,17.65321-5.82649,30.55097l43.82893,110.10806,.02067-.01679-.02519-.06308,80.06581-65.0421c3.51669-2.85792,7.85276-4.51777,12.37742-4.73887,4.52466-.22131,9.0026,1.00969,12.7785,3.51131l72.82231,48.40978c10.88269,7.25534,22.21188,6.62821,29.56755,1.26846l.90011-.73197c7.33069-5.98214,10.68463-17.28916,5.60173-29.91028Z"/>
    <path class="uuid-b1e195a8-90f1-4c38-840b-1f11e9ede16f" d="M417.0286,111.33404c.0056-.00474,.01055-.0099,.01593-.01464l-.14726,.1197c-.00538,.00495-.01076,.01012-.01615,.01485l.14747-.11991Z"/>
    <path class="uuid-4c9f3711-fa8c-47f4-9ea7-b1e2e0897236" d="M319.20301,491.33044c-.08633-.23681-.18084-.47535-.27341-.71367,.09236,.23811,.18708,.47686,.27341,.71367Z"/>
    <path class="uuid-4c9f3711-fa8c-47f4-9ea7-b1e2e0897236" d="M319.60969,492.50762c-.10915-.33477-.2267-.67148-.34812-1.00883,.12121,.33735,.23897,.67427,.34812,1.00883Z"/>
    <path class="uuid-4c9f3711-fa8c-47f4-9ea7-b1e2e0897236" d="M319.96318,493.65746c-.10614-.36835-.22045-.73886-.34123-1.11066,.12078,.37201,.23488,.7423,.34123,1.11066Z"/>
    <path class="uuid-90d394cf-adf9-4c47-ba97-7d8a27bfdb71" d="M456.37743,250.87811l-2.0338-5.11648-41.76886-105.05682c-5.06137-12.01014-2.45856-23.21748,4.30636-29.25086L242.47563,253.32698c7.76277-6.32789,19.53674-7.33069,31.27605,.36297l85.89295,56.72626c3.77417,2.49322,8.2435,3.71906,12.76127,3.49775,4.51755-.22131,8.84673-1.876,12.35998-4.7253l71.62446-58.27826-.01292-.03229Z"/>
    <path class="uuid-a9229981-c51f-4634-b786-9e386e669a02" d="M536.43829,174.13652c-.89731-4.39613-3.50464-8.25599-7.24759-10.73091l-79.72071-52.66296c-10.87494-7.45168-22.40672-7.10593-29.73741-1.60797l-2.6971,2.17848c-.04693,.0409-.09171,.08461-.13821,.12594l.14726-.1197c-.00538,.00474-.01033,.0099-.01593,.01464l-.14747,.11991c-6.76492,6.03338-9.36772,17.24072-4.30636,29.25086l41.76886,105.05682,2.02476,5.0928,.02196,.05597,74.13168-60.27439c1.33283-1.08504,2.49817-2.36082,3.4577-3.78623,2.47234-3.74446,3.3576-8.31713,2.45856-12.71326Z"/>
    <path class="uuid-a6290472-b142-42dc-a70e-0958df2dae60" d="M318.01334,488.30094l.72056,1.80861c.06889,.16986,.13003,.338,.19569,.50721-.05877-.15178-.11302-.30269-.17438-.4549l-.74187-1.86093Z"/>
    <path class="uuid-a6290472-b142-42dc-a70e-0958df2dae60" d="M320.01076,493.83206c-.01658-.05834-.03057-.11604-.04758-.1746,.01701,.05856,.031,.11625,.04758,.1746Z"/>
    <path class="uuid-a6290472-b142-42dc-a70e-0958df2dae60" d="M319.62196,492.5468c-.00431-.01313-.00797-.02605-.01227-.03918,.00431,.01313,.00797,.02605,.01227,.03918Z"/>
    <path class="uuid-a6290472-b142-42dc-a70e-0958df2dae60" d="M319.26157,491.49879c-.02024-.0564-.03789-.11195-.05856-.16835,.02067,.0564,.03832,.11195,.05856,.16835Z"/>
    <path class="uuid-4c9f3711-fa8c-47f4-9ea7-b1e2e0897236" d="M320.5225,495.88029c-.03445-.15953-.07449-.32099-.11173-.48138-.04715-.20581-.09236-.41077-.14424-.61744-.07923-.31496-.16599-.63165-.25576-.94941-.01658-.05834-.03057-.11604-.04758-.1746-.10635-.36835-.22045-.73865-.34123-1.11066-.00431-.01313-.00797-.02605-.01227-.03918-.10915-.33455-.22691-.67148-.34812-1.00883-.02024-.0564-.03789-.11195-.05856-.16835-.08633-.23681-.18106-.47557-.27341-.71367-.06566-.16921-.1268-.33735-.19569-.50721l-.72056-1.80861-37.57079-94.23268-.01658-.04155-65.41498,53.21668c-1.32121,1.0859-2.47471,2.36168-3.42326,3.78644-2.47126,3.74123-3.35523,8.31089-2.45706,12.70401,.89817,4.39312,3.50464,8.25039,7.24608,10.72295l66.99582,44.29481c11.1688,7.29625,22.2685,6.41444,29.39166,1.08935l.43229-.36319c.00646-.00517,.01249-.01055,.01873-.01572l.97589-.79311c2.49839-2.29645,4.45512-5.21616,5.6562-8.61573,1.45361-4.11432,1.80302-8.9266,.67514-14.1729Z"/>
    <path class="uuid-a6290472-b142-42dc-a70e-0958df2dae60" d="M488.03303,377.35541c-7.35566,5.35975-18.68486,5.98688-29.56755-1.26846l-72.82231-48.40978c-3.7759-2.50162-8.25384-3.73262-12.7785-3.51131-4.52466,.2211-8.86073,1.88095-12.37742,4.73887l-80.06581,65.0421,.02519,.06308-.02067,.01679,.01658,.04155,37.57079,94.23268,.74187,1.86093c.06136,.15221,.11561,.30312,.17438,.4549,.09257,.23832,.18708,.47686,.27341,.71367,.02067,.0564,.03832,.11195,.05856,.16835,.12142,.33735,.23897,.67406,.34812,1.00883,.00431,.01313,.00797,.02605,.01227,.03918,.12078,.3718,.23509,.7423,.34123,1.11066,.01701,.05856,.031,.11625,.04758,.1746,.08956,.31776,.17675,.63466,.25576,.94941,.0521,.20689,.09688,.41163,.14424,.61744,.03703,.16039,.0775,.32185,.11173,.48138,.98213,4.56815,.84327,8.80669-.16835,12.54254l-.03423,.124c-.06093,.22024-.12508,.43875-.19225,.65554-.08956,.2859-.18041,.57115-.2803,.85081-1.20108,3.39958-3.15781,6.31928-5.6562,8.61573l100.66736-81.8079,74.01865-60.15167c-.27449,.22325-.55716,.43703-.84414,.64607Z"/>
  </g>
</svg>