<?xml version="1.0" encoding="UTF-8"?>
<svg id="uuid-4001090d-7d4c-4a0a-9b30-eb2a2e4f7917" data-name="desz" xmlns="http://www.w3.org/2000/svg" xmlns:xlink="http://www.w3.org/1999/xlink" viewBox="0 0 1993.15339 630.439">
  <defs>
    <style>
      .uuid-7ace0929-c442-470d-924d-1b16f2b41586 {
        fill: url(#uuid-94984186-63e2-45bc-9439-62957079e492);
      }

      .uuid-250423c2-b027-41b4-b493-f56a79521e52 {
        fill: #003253;
      }

      .uuid-87fc18b3-30ba-428a-8696-82eef877f819 {
        fill: #0095f8;
      }

      .uuid-6f0d9483-96ab-4f22-a970-8b4b679bfe1c {
        fill: #007aca;
      }

      .uuid-74d1aa55-4e8e-4d0b-9c0f-709d5bc26d4a {
        fill: #ff9d00;
      }

      .uuid-06f59553-31c8-42dc-827c-90f13c6a23a6 {
        fill: #f23f5f;
      }

      .uuid-267ecf86-1d03-45e6-986e-3cbf42fe2e26 {
        fill: #6243dc;
      }
    </style>
    <linearGradient id="uuid-94984186-63e2-45bc-9439-62957079e492" x1="461.28509" y1="280.00016" x2="254.14536" y2="367.21688" gradientUnits="userSpaceOnUse">
      <stop offset="0" stop-color="#6243dc"/>
      <stop offset=".99991" stop-color="#8b56e8"/>
    </linearGradient>
  </defs>
  <g>
    <path class="uuid-250423c2-b027-41b4-b493-f56a79521e52" d="m723.82573,395.45466c12.85007,0,22.21614-1.53839,28.10727-4.61818,5.88509-3.07678,8.83518-8.36461,8.83518-15.8635,0-6.95593-3.14917-12.71131-9.43545-17.26615-6.29533-4.5488-16.66588-9.4988-31.1207-14.85601-8.83518-3.21252-16.93434-6.62714-24.29448-10.24084-7.36617-3.61371-13.72183-7.8307-19.07301-12.64797-5.35721-4.81727-9.57421-10.64203-12.64797-17.46825-3.08281-6.82622-4.61818-15.18782-4.61818-25.09685,0-19.27209,7.08865-34.46293,21.28105-45.57552,14.18636-11.10355,33.46147-16.66286,57.82231-16.66286,12.31013,0,24.09539,1.14022,35.3377,3.4116,11.2423,2.27742,19.6763,4.48546,25.29896,6.62714l-8.83518,39.34957c-5.35721-2.40713-12.18344-4.61517-20.47867-6.62412-8.30127-2.00895-17.93882-3.01042-28.91266-3.01042-9.90602,0-17.93882,1.67413-24.09238,5.01937-6.1626,3.34826-9.23637,8.50035-9.23637,15.4593,0,3.48098.60329,6.56078,1.80685,9.23335,1.20658,2.68162,3.27586,5.15813,6.22595,7.42951,2.94104,2.27742,6.82622,4.55484,11.64349,6.82622,4.81727,2.27742,10.70538,4.61818,17.66734,7.02833,11.50775,4.28336,21.28406,8.50035,29.31385,12.64797,8.02979,4.15365,14.65692,8.83518,19.8784,14.05363,5.21846,5.22147,9.03426,11.18198,11.44139,17.86944,2.41014,6.6935,3.61672,14.7263,3.61672,24.09238,0,20.07748-7.42951,35.27435-22.28854,45.57552-14.85601,10.30419-36.07673,15.46232-63.64405,15.46232-18.47273,0-33.32874-1.54442-44.57105-4.61818-11.24532-3.07678-19.1454-5.55328-23.6942-7.42951l8.43399-40.55615c7.22741,2.94707,15.86049,5.7584,25.89923,8.43097,10.03874,2.68162,21.48315,4.01791,34.33322,4.01791Z"/>
    <path class="uuid-250423c2-b027-41b4-b493-f56a79521e52" d="m834.3273,326.38703c0-18.47273,2.74195-34.66503,8.23189-48.58896,5.4839-13.91488,12.78069-25.49804,21.88434-34.73139,9.09761-9.23637,19.53754-16.19531,31.31979-20.88287,11.77622-4.67851,23.82391-7.02531,36.14007-7.02531,28.91266,0,51.46062,8.97092,67.66196,26.90371,16.1923,17.9358,24.29146,44.7098,24.29146,80.30993,0,2.67861-.06636,5.68902-.19909,9.03426-.13876,3.35127-.33784,6.36169-.60329,9.03426h-138.53342c1.33629,16.86496,7.29076,29.91714,17.86944,39.15049,10.56964,9.23637,25.89923,13.85455,45.97671,13.85455,11.77622,0,22.54795-1.06782,32.32426-3.21252,9.77028-2.13866,17.46825-4.41608,23.0879-6.82622l6.42504,39.75378c-2.67861,1.34232-6.36169,2.74798-11.0402,4.217-4.68756,1.47203-10.03874,2.80831-16.06259,4.01489-6.02385,1.20356-12.51826,2.20804-19.47721,3.01042-6.96196.80238-14.05363,1.20658-21.28105,1.20658-18.46972,0-34.53231-2.74798-48.18475-8.23189-13.65245-5.4839-24.89777-13.11552-33.72993-22.88881-8.83518-9.77028-15.39897-21.28406-19.6763-34.53532-4.28637-13.25126-6.42504-27.76943-6.42504-43.56657Zm140.94357-21.68525c0-6.68747-.94113-13.04916-2.81133-19.07301-1.87623-6.02385-4.61818-11.2423-8.23189-15.65839-3.61371-4.4191-8.02979-7.89405-13.25126-10.44295-5.21846-2.53985-11.44441-3.81279-18.67182-3.81279-7.49889,0-14.05363,1.40567-19.6763,4.217-5.62266,2.80831-10.37658,6.4914-14.25574,11.0402-3.88217,4.55484-6.8956,9.77631-9.03426,15.6614-2.1447,5.89112-3.61371,11.91497-4.41608,18.06853h90.34867Z"/>
    <path class="uuid-250423c2-b027-41b4-b493-f56a79521e52" d="m1115.75895,430.38815c-13.43828-27.57034-27.21742-59.22797-41.32836-94.96686-14.11698-35.73888-26.94594-74.087-38.50497-115.04434h51.81957c2.95612,11.78225,6.37979,24.43323,10.27704,37.94693,3.89725,13.51972,8.06297,27.04246,12.49715,40.55615,4.4372,13.52274,9.0041,26.64128,13.70976,39.35259,4.70566,12.71735,9.07348,24.16175,13.10647,34.33322,4.02998-10.17147,8.33445-21.61587,12.90135-34.33322,4.5669-12.71131,9.07348-25.82985,13.50766-39.35259,4.43116-13.51369,8.66626-27.03643,12.69925-40.55615,4.02696-13.51369,7.52302-26.16468,10.48518-37.94693h50.20577c-11.55903,40.95734-24.39402,79.30545-38.50497,115.04434-14.11698,35.73888-27.89008,67.39651-41.32836,94.96686h-41.54253Z"/>
    <path class="uuid-250423c2-b027-41b4-b493-f56a79521e52" d="m1246.95335,326.38703c0-18.47273,2.74195-34.66503,8.23189-48.58896,5.4839-13.91488,12.78069-25.49804,21.88434-34.73139,9.09761-9.23637,19.53754-16.19531,31.31979-20.88287,11.77622-4.67851,23.82391-7.02531,36.14007-7.02531,28.91266,0,51.46062,8.97092,67.66196,26.90371,16.1923,17.9358,24.29146,44.7098,24.29146,80.30993,0,2.67861-.06636,5.68902-.19909,9.03426-.13876,3.35127-.33784,6.36169-.60329,9.03426h-138.53342c1.33629,16.86496,7.29076,29.91714,17.86944,39.15049,10.56964,9.23637,25.89923,13.85455,45.97671,13.85455,11.77622,0,22.54795-1.06782,32.32426-3.21252,9.77028-2.13866,17.46825-4.41608,23.0879-6.82622l6.42504,39.75378c-2.67861,1.34232-6.36169,2.74798-11.0402,4.217-4.68756,1.47203-10.03874,2.80831-16.06259,4.01489-6.02385,1.20356-12.51826,2.20804-19.47721,3.01042-6.96196.80238-14.05363,1.20658-21.28105,1.20658-18.46972,0-34.53231-2.74798-48.18475-8.23189s-24.89777-13.11552-33.72993-22.88881c-8.83518-9.77028-15.39897-21.28406-19.6763-34.53532-4.28637-13.25126-6.42504-27.76943-6.42504-43.56657Zm140.94357-21.68525c0-6.68747-.94113-13.04916-2.81133-19.07301-1.87623-6.02385-4.61818-11.2423-8.23189-15.65839-3.61371-4.4191-8.02979-7.89405-13.25126-10.44295-5.21846-2.53985-11.44441-3.81279-18.67182-3.81279-7.49889,0-14.05363,1.40567-19.6763,4.217-5.62266,2.80831-10.37658,6.4914-14.25574,11.0402-3.88217,4.55484-6.8956,9.77631-9.03426,15.6614-2.1447,5.89112-3.61371,11.91497-4.41608,18.06853h90.34867Z"/>
    <path class="uuid-250423c2-b027-41b4-b493-f56a79521e52" d="m1595.85995,264.14563c-4.01489-1.33629-9.57421-2.74195-16.66286-4.21398-7.0977-1.46901-15.32959-2.21106-24.69567-2.21106-5.36023,0-11.04322.53994-17.06707,1.60777-6.02385,1.07386-10.24084,2.00594-12.64797,2.81133v168.24846h-48.58896v-199.97245c9.36909-3.47495,21.08196-6.75685,35.13559-9.83664,14.05363-3.07376,29.64566-4.61818,46.7821-4.61818,3.21252,0,6.95593.19909,11.2423.60329,4.28034.40119,8.5637.94113,12.85007,1.60475,4.27732.67267,8.43097,1.47504,12.44888,2.41014,4.01489.94113,7.22741,1.80685,9.63755,2.60923l-8.43399,40.95734Z"/>
    <path class="uuid-250423c2-b027-41b4-b493-f56a79521e52" d="m1698.01198,215.1585c16.06259,0,29.57628,2.00594,40.55615,6.02083,10.97384,4.01791,19.73964,9.63755,26.30343,16.86798,6.55474,7.22741,11.2423,15.99924,14.05363,26.30042,2.81133,10.30721,4.217,21.6219,4.217,33.93203v127.29112c-7.49889,1.60475-18.81057,3.55036-33.93203,5.82175-15.12749,2.27139-32.19456,3.4116-51.19818,3.4116-12.58462,0-24.09238-1.20356-34.53231-3.61371-10.43993-2.40713-19.34449-6.28628-26.70462-11.64349-7.36617-5.35118-13.11854-12.31013-17.26615-20.87986-4.15365-8.56671-6.22293-19.13635-6.22293-31.72399,0-12.0477,2.34076-22.21614,7.02531-30.51741,4.68153-8.29523,11.04322-15.05811,19.07602-20.27958,8.02979-5.21846,17.3295-8.96489,27.90517-11.2423,10.57265-2.27139,21.61587-3.41462,33.12966-3.41462,5.35118,0,10.97384.34086,16.86496,1.00448,5.88509.67267,12.1774,1.80685,18.87392,3.41462v-8.0328c0-5.61964-.67267-10.97384-2.00895-16.05957-1.34232-5.08272-3.68308-9.56818-7.02833-13.45336-3.34826-3.87614-7.76736-6.88957-13.25126-9.03426-5.48994-2.13866-12.38554-3.21252-20.67776-3.21252-11.24532,0-21.55253.80238-30.92162,2.41014-9.37211,1.60475-17.00071,3.48098-22.8858,5.61964l-6.02385-39.34957c6.15356-2.14168,15.12146-4.28034,26.90371-6.42504,11.77622-2.14168,24.35481-3.21252,37.74482-3.21252Zm4.01489,181.09853c14.98873,0,26.36376-.80238,34.13413-2.41014v-53.80741c-2.68162-.80238-6.56379-1.60475-11.64651-2.41014-5.08875-.80238-10.71141-1.20356-16.86496-1.20356-5.35721,0-10.77777.40119-16.26168,1.20356-5.48994.80539-10.43993,2.27742-14.85903,4.4191-4.41608,2.1447-7.96644,5.15511-10.63901,9.03426-2.68162,3.88217-4.01791,8.77183-4.01791,14.65692,0,11.51077,3.61371,19.47419,10.84413,23.89027,7.22741,4.4191,16.99467,6.62714,29.31083,6.62714Z"/>
  </g>
  <g>
    <g>
      <path class="uuid-7ace0929-c442-470d-924d-1b16f2b41586" d="m511.85712,259.62445c-11.61957-10.23472-25.97685-16.27109-57.10728-16.27109-51.07602,0-111.46775,17.83841-155.12943,41.76965-.00222.002-.00445.00378-.00645.00578-22.57728,20.81793-65.34551,65.32684-50.21213,83.81845.00022.00022.00044.00067.00067.00089h0c-.04867-.03956-.09712-.07934-.1458-.11913,12.89952,11.68158,36.929,15.60456,57.25263,15.60456,46.77988,0,110.01133-17.12609,155.47326-41.41116,22.55461-20.8017,64.82521-64.87078,49.87453-83.39795Z"/>
      <path class="uuid-06f59553-31c8-42dc-827c-90f13c6a23a6" d="m440.89546,137.25017l-15.73142-32.47715c-105.57847,22.1765-203.1579,87.43539-214.12662,164.32186-.09137.6402-.18218,1.28097-.26148,1.92289-.00029.00287-.00057.00517-.00086.00805-.0046.03735-.00805.07471-.01236.11206-3.23461,26.44296,3.81102,54.22092,24.29623,82.06553.04511.06092.08908.12241.13448.1839.60256.81835,1.2212,1.6367,1.84732,2.45505.1227.15976.24137.31952.36464.47929.57382.74479,1.16259,1.48843,1.75566,2.23207.16551.20804.32585.4155.49279.62296.72382.89938,1.462,1.79876,2.21455,2.69757.02529.02988.04885.05977.07385.08965,2.19644,2.63091,4.7173,4.75264,7.31401,6.86461.04885.03965.09741.07988.14626.11953-.00029,0-.00057-.00057-.00057-.00057-15.13346-18.49163,27.63486-63.00095,50.21192-83.8189.00172-.00172.00345-.00345.00517-.0046-.00345.00172-.0069.00345-.01063.00575.00431-.00287.00891-.00517.01322-.00805-.00086.00057-.00172.00115-.00259.0023.00057-.00057.00086-.00057.00144-.00115,29.44109-25.44876,67.94007-49.51827,110.77735-68.08288,31.26945-13.55164,45.1567-49.52747,30.49765-79.78978Z"/>
      <path class="uuid-87fc18b3-30ba-428a-8696-82eef877f819" d="m519.26865,266.53121c-2.23782-2.6809-4.81155-4.83252-7.46027-6.98414.00603.0069.01063.01437.01638.02126.0227.02758.04195.05689.06436.08448-.01063-.00919-.02126-.01896-.03189-.02816,14.95071,18.52726-27.31993,62.59579-49.87458,83.39765.00776-.00402.01552-.00805.02327-.01264.0431-.02299.08649-.04597.1293-.06839-.05574.03448-.11321.06839-.16896.10402-29.29512,25.40106-67.62342,49.44701-110.30352,68.04093-31.20796,13.59589-45.05269,49.52402-30.40972,79.753l15.82279,32.66507c103.72568-22.07249,199.47848-85.67225,212.59623-160.92605.0227-.13792.04224-.26206.06178-.38734-.00575.03678-.01063.07011-.01667.10804.13649-.79364.2678-1.58785.38561-2.38379.01638-.11436.03333-.22872.04942-.34309.06551-.454.12327-.90915.18275-1.36315.03161-.25056.06322-.50515.09454-.76548.01925-.16091.03304-.32297.05143-.48388,3.44495-29.09858-5.54053-59.8034-31.21227-90.42834Zm30.53673,95.17984c-.01092.07701-.02241.15689-.03448.23677.01207-.08046.02356-.15919.03448-.23677Zm.05948-.44481c-.00919.07528-.01925.15287-.02931.22872.01034-.07643.01983-.15287.02931-.22872Zm.21666-2.30966c.01753-.22183.03563-.4586.05574-.72065-.02011.26091-.0385.49998-.05574.72065Zm-.19137,2.10392c.00948-.08161.01868-.16551.02758-.24884-.00891.08333-.0181.16781-.02758.24884Zm.04827-.44021c.00919-.09023.0181-.18505.02701-.28045-.00891.09482-.0181.1908-.02701.28045Zm.04597-.48388c.01006-.11091.02011-.23045.03046-.35171-.01034.12011-.0204.24137-.03046.35171Zm.0454-.53101c.01121-.13563.02299-.28619.03506-.43791-.01207.15172-.02385.30228-.03506.43791Z"/>
    </g>
    <g>
      <path class="uuid-267ecf86-1d03-45e6-986e-3cbf42fe2e26" d="m511.85715,259.62423c-11.61957-10.23472-25.97685-16.27109-57.10728-16.27109-51.07602,0-111.46775,17.83841-155.12943,41.76965-.00222.002-.00445.00378-.00645.00578-22.57728,20.81793-65.34551,65.32684-50.21213,83.81845.00022.00022.00044.00067.00067.00089h0c-.04867-.03956-.09712-.07934-.1458-.11913,12.89952,11.68158,36.929,15.60456,57.25263,15.60456,46.77988,0,110.01133-17.12609,155.47326-41.41116,22.55461-20.8017,64.82521-64.87078,49.87453-83.39795Z"/>
      <path class="uuid-74d1aa55-4e8e-4d0b-9c0f-709d5bc26d4a" d="m440.89555,137.25l-15.73146-32.47706c-105.57851,22.17622-203.15793,87.4355-214.12675,164.32145.17558-1.16638.37294-2.28987.59653-3.54559-.29982,1.7718-.38583,2.31698-.57008,4.71042-.26559,3.45136-.11179,7.7975.28604,10.59099,4.15434,29.16883,50.08522,24.38374,81.08475,8.3578,2.49745-1.29106,4.9-2.65347,7.17386-4.07855.00445-.00267.00889-.00533.01311-.00822-.00067.00089-.00156.00156-.00244.00244.00044-.00044.00089-.00044.00133-.00089,29.44109-25.44878,67.94008-49.51825,110.77743-68.08321,31.26934-13.55139,45.15655-49.52748,30.49768-79.78957Z"/>
      <path class="uuid-87fc18b3-30ba-428a-8696-82eef877f819" d="m549.85118,347.64458c-4.10055-28.79256-48.60302-24.76291-79.52098-9.27948-2.86194,1.43331-5.60854,2.96307-8.19489,4.57573-.05579.03489-.11335.0689-.16913.10401-29.29485,25.40099-67.62337,49.44713-110.30337,68.04098-31.208,13.59628-45.05276,49.52426-30.40989,79.75323l15.82281,32.66531c103.72581-22.07299,199.47854-85.6727,212.59632-160.92622.24514-1.49176.29448-2.12362.4654-4.34259.26559-3.45158.11157-7.7975-.28626-10.59099Z"/>
      <path class="uuid-06f59553-31c8-42dc-827c-90f13c6a23a6" d="m299.60843,285.12945c-2.27386,1.42508-4.67641,2.78749-7.17386,4.07855-30.99953,16.02595-76.93041,20.81104-81.08475-8.3578-.39783-2.79349-.55163-7.13963-.28604-10.59099.18425-2.39343.27026-2.93862.57008-4.71042-.22359,1.25573-.42095,2.37921-.59653,3.54559-.09135.64053-.18202,1.28106-.26137,1.92293-.00022.00289-.00067.00556-.00089.00845-.00467.03712-.008.07445-.01245.11179-3.23466,26.44291,3.81118,54.22134,24.2964,82.06555.04512.06134.0889.12268.13424.18402.60275.81833,1.2215,1.63667,1.84758,2.455.12246.16002.24137.31982.36472.47962.57363.74432,1.16238,1.4882,1.75557,2.23208.16558.20758.3256.41495.49273.62253.72388.89968,1.46198,1.79891,2.21452,2.6977.02511.03.04867.05979.07379.08979,2.19652,2.63102,4.7173,4.75242,7.3141,6.86448.0489.03978.09735.07979.14624.11957-.00022-.00022-.00044-.00067-.00067-.00089-15.13338-18.49161,27.63485-63.00052,50.21213-83.81845.00156-.00178.00333-.00333.00511-.00489-.00356.00178-.00711.00378-.01067.00578Z"/>
      <path class="uuid-6f0d9483-96ab-4f22-a970-8b4b679bfe1c" d="m519.26882,266.53094c-2.23786-2.68081-4.81176-4.83243-7.46034-6.98428.00578.00711.01045.01445.01622.02134.02267.02778.04201.0569.06445.08468-.01067-.00933-.02134-.01911-.032-.02845,14.95069,18.52717-27.31992,62.59625-49.87453,83.39795.00778-.004.01556-.00822.02334-.01245.04312-.02311.08646-.04601.12935-.0689,2.58635-1.61266,5.33294-3.14243,8.19489-4.57573,30.91796-15.48343,75.42043-19.51308,79.52098,9.27948.39783,2.79349.55185,7.13941.28626,10.59099-.1598,2.07517-.21336,2.7626-.42028,4.06299.13646-.79344.26781-1.58755.38561-2.38366.01645-.11424.03334-.22848.04956-.34316.06556-.45384.12313-.90879.18247-1.3633.03178-.25048.06334-.50473.09468-.76544.01934-.16091.03289-.32249.05156-.48362,3.44491-29.0986-5.54075-59.8032-31.21222-90.42846Z"/>
    </g>
  </g>
</svg>