<?xml version="1.0" encoding="UTF-8"?>
<svg id="uuid-ae2c7b32-6c13-469f-b1cd-347b3ac5680b" data-name="desz" xmlns="http://www.w3.org/2000/svg" viewBox="0 0 1993.15339 630.439">
  <defs>
    <style>
      .uuid-6ecc5127-6d05-4942-854c-29e0a37ad679 {
        fill: #fff;
      }
    </style>
  </defs>
  <g>
    <path class="uuid-6ecc5127-6d05-4942-854c-29e0a37ad679" d="m723.82573,395.45466c12.85007,0,22.21614-1.53839,28.10727-4.61818,5.88509-3.07678,8.83518-8.36461,8.83518-15.8635,0-6.95593-3.14917-12.71131-9.43545-17.26615-6.29533-4.5488-16.66588-9.4988-31.1207-14.85601-8.83518-3.21252-16.93434-6.62714-24.29448-10.24084-7.36617-3.61371-13.72183-7.8307-19.07301-12.64797-5.35721-4.81727-9.57421-10.64203-12.64797-17.46825-3.08281-6.82622-4.61818-15.18782-4.61818-25.09685,0-19.27209,7.08865-34.46293,21.28105-45.57552,14.18636-11.10355,33.46147-16.66286,57.82231-16.66286,12.31013,0,24.09539,1.14022,35.3377,3.4116,11.2423,2.27742,19.6763,4.48546,25.29896,6.62714l-8.83518,39.34957c-5.35721-2.40713-12.18344-4.61517-20.47867-6.62412-8.30127-2.00895-17.93882-3.01042-28.91266-3.01042-9.90602,0-17.93882,1.67413-24.09238,5.01937-6.1626,3.34826-9.23637,8.50035-9.23637,15.4593,0,3.48098.60329,6.56078,1.80685,9.23335,1.20658,2.68162,3.27586,5.15813,6.22595,7.42951,2.94104,2.27742,6.82622,4.55484,11.64349,6.82622,4.81727,2.27742,10.70538,4.61818,17.66734,7.02833,11.50775,4.28336,21.28406,8.50035,29.31385,12.64797,8.02979,4.15365,14.65692,8.83518,19.8784,14.05363,5.21846,5.22147,9.03426,11.18198,11.44139,17.86944,2.41014,6.6935,3.61672,14.7263,3.61672,24.09238,0,20.07748-7.42951,35.27435-22.28854,45.57552-14.85601,10.30419-36.07673,15.46232-63.64405,15.46232-18.47273,0-33.32874-1.54442-44.57105-4.61818-11.24532-3.07678-19.1454-5.55328-23.6942-7.42951l8.43399-40.55615c7.22741,2.94707,15.86049,5.7584,25.89923,8.43097,10.03874,2.68162,21.48315,4.01791,34.33322,4.01791Z"/>
    <path class="uuid-6ecc5127-6d05-4942-854c-29e0a37ad679" d="m834.3273,326.38703c0-18.47273,2.74195-34.66503,8.23189-48.58896,5.4839-13.91488,12.78069-25.49804,21.88434-34.73139,9.09761-9.23637,19.53754-16.19531,31.31979-20.88287,11.77622-4.67851,23.82391-7.02531,36.14007-7.02531,28.91266,0,51.46062,8.97092,67.66196,26.90371,16.1923,17.9358,24.29146,44.7098,24.29146,80.30993,0,2.67861-.06636,5.68902-.19909,9.03426-.13876,3.35127-.33784,6.36169-.60329,9.03426h-138.53342c1.33629,16.86496,7.29076,29.91714,17.86944,39.15049,10.56964,9.23637,25.89923,13.85455,45.97671,13.85455,11.77622,0,22.54795-1.06782,32.32426-3.21252,9.77028-2.13866,17.46825-4.41608,23.0879-6.82622l6.42504,39.75378c-2.67861,1.34232-6.36169,2.74798-11.0402,4.217-4.68756,1.47203-10.03874,2.80831-16.06259,4.01489-6.02385,1.20356-12.51826,2.20804-19.47721,3.01042-6.96196.80238-14.05363,1.20658-21.28105,1.20658-18.46972,0-34.53231-2.74798-48.18475-8.23189-13.65245-5.4839-24.89777-13.11552-33.72993-22.88881-8.83518-9.77028-15.39897-21.28406-19.6763-34.53532-4.28637-13.25126-6.42504-27.76943-6.42504-43.56657Zm140.94357-21.68525c0-6.68747-.94113-13.04916-2.81133-19.07301-1.87623-6.02385-4.61818-11.2423-8.23189-15.65839-3.61371-4.4191-8.02979-7.89405-13.25126-10.44295-5.21846-2.53985-11.44441-3.81279-18.67182-3.81279-7.49889,0-14.05363,1.40567-19.6763,4.217-5.62266,2.80831-10.37658,6.4914-14.25574,11.0402-3.88217,4.55484-6.8956,9.77631-9.03426,15.6614-2.1447,5.89112-3.61371,11.91497-4.41608,18.06853h90.34867Z"/>
    <path class="uuid-6ecc5127-6d05-4942-854c-29e0a37ad679" d="m1115.75895,430.38815c-13.43828-27.57034-27.21742-59.22797-41.32836-94.96686-14.11698-35.73888-26.94594-74.087-38.50497-115.04434h51.81957c2.95612,11.78225,6.37979,24.43323,10.27704,37.94693,3.89725,13.51972,8.06297,27.04246,12.49715,40.55615,4.4372,13.52274,9.0041,26.64128,13.70976,39.35259,4.70566,12.71735,9.07348,24.16175,13.10647,34.33322,4.02998-10.17147,8.33445-21.61587,12.90135-34.33322,4.5669-12.71131,9.07348-25.82985,13.50766-39.35259,4.43116-13.51369,8.66626-27.03643,12.69925-40.55615,4.02696-13.51369,7.52302-26.16468,10.48518-37.94693h50.20577c-11.55903,40.95734-24.39402,79.30545-38.50497,115.04434-14.11698,35.73888-27.89008,67.39651-41.32836,94.96686h-41.54253Z"/>
    <path class="uuid-6ecc5127-6d05-4942-854c-29e0a37ad679" d="m1246.95335,326.38703c0-18.47273,2.74195-34.66503,8.23189-48.58896,5.4839-13.91488,12.78069-25.49804,21.88434-34.73139,9.09761-9.23637,19.53754-16.19531,31.31979-20.88287,11.77622-4.67851,23.82391-7.02531,36.14007-7.02531,28.91266,0,51.46062,8.97092,67.66196,26.90371,16.1923,17.9358,24.29146,44.7098,24.29146,80.30993,0,2.67861-.06636,5.68902-.19909,9.03426-.13876,3.35127-.33784,6.36169-.60329,9.03426h-138.53342c1.33629,16.86496,7.29076,29.91714,17.86944,39.15049,10.56964,9.23637,25.89923,13.85455,45.97671,13.85455,11.77622,0,22.54795-1.06782,32.32426-3.21252,9.77028-2.13866,17.46825-4.41608,23.0879-6.82622l6.42504,39.75378c-2.67861,1.34232-6.36169,2.74798-11.0402,4.217-4.68756,1.47203-10.03874,2.80831-16.06259,4.01489-6.02385,1.20356-12.51826,2.20804-19.47721,3.01042-6.96196.80238-14.05363,1.20658-21.28105,1.20658-18.46972,0-34.53231-2.74798-48.18475-8.23189-13.65245-5.4839-24.89777-13.11552-33.72993-22.88881-8.83518-9.77028-15.39897-21.28406-19.6763-34.53532-4.28637-13.25126-6.42504-27.76943-6.42504-43.56657Zm140.94357-21.68525c0-6.68747-.94113-13.04916-2.81133-19.07301-1.87623-6.02385-4.61818-11.2423-8.23189-15.65839-3.61371-4.4191-8.02979-7.89405-13.25126-10.44295-5.21846-2.53985-11.44441-3.81279-18.67182-3.81279-7.49889,0-14.05363,1.40567-19.6763,4.217-5.62266,2.80831-10.37658,6.4914-14.25574,11.0402-3.88217,4.55484-6.8956,9.77631-9.03426,15.6614-2.1447,5.89112-3.61371,11.91497-4.41608,18.06853h90.34867Z"/>
    <path class="uuid-6ecc5127-6d05-4942-854c-29e0a37ad679" d="m1595.85995,264.14563c-4.01489-1.33629-9.57421-2.74195-16.66286-4.21398-7.0977-1.46901-15.32959-2.21106-24.69567-2.21106-5.36023,0-11.04322.53994-17.06707,1.60777-6.02385,1.07386-10.24084,2.00594-12.64797,2.81133v168.24846h-48.58896v-199.97245c9.36909-3.47495,21.08196-6.75685,35.13559-9.83664,14.05363-3.07376,29.64566-4.61818,46.7821-4.61818,3.21252,0,6.95593.19909,11.2423.60329,4.28034.40119,8.5637.94113,12.85007,1.60475,4.27732.67267,8.43097,1.47504,12.44888,2.41014,4.01489.94113,7.22741,1.80685,9.63755,2.60923l-8.43399,40.95734Z"/>
    <path class="uuid-6ecc5127-6d05-4942-854c-29e0a37ad679" d="m1698.01198,215.1585c16.06259,0,29.57628,2.00594,40.55615,6.02083,10.97384,4.01791,19.73964,9.63755,26.30343,16.86798,6.55474,7.22741,11.2423,15.99924,14.05363,26.30042,2.81133,10.30721,4.217,21.6219,4.217,33.93203v127.29112c-7.49889,1.60475-18.81057,3.55036-33.93203,5.82175-15.12749,2.27139-32.19456,3.4116-51.19818,3.4116-12.58462,0-24.09238-1.20356-34.53231-3.61371-10.43993-2.40713-19.34449-6.28628-26.70462-11.64349-7.36617-5.35118-13.11854-12.31013-17.26615-20.87986-4.15365-8.56671-6.22293-19.13635-6.22293-31.72399,0-12.0477,2.34076-22.21614,7.02531-30.51741,4.68153-8.29523,11.04322-15.05811,19.07602-20.27958,8.02979-5.21846,17.3295-8.96489,27.90517-11.2423,10.57265-2.27139,21.61587-3.41462,33.12966-3.41462,5.35118,0,10.97384.34086,16.86496,1.00448,5.88509.67267,12.1774,1.80685,18.87392,3.41462v-8.0328c0-5.61964-.67267-10.97384-2.00895-16.05957-1.34232-5.08272-3.68308-9.56818-7.02833-13.45336-3.34826-3.87614-7.76736-6.88957-13.25126-9.03426-5.48994-2.13866-12.38554-3.21252-20.67776-3.21252-11.24532,0-21.55253.80238-30.92162,2.41014-9.37211,1.60475-17.00071,3.48098-22.8858,5.61964l-6.02385-39.34957c6.15356-2.14168,15.12146-4.28034,26.90371-6.42504,11.77622-2.14168,24.35481-3.21252,37.74482-3.21252Zm4.01489,181.09853c14.98873,0,26.36376-.80238,34.13413-2.41014v-53.80741c-2.68162-.80238-6.56379-1.60475-11.64651-2.41014-5.08875-.80238-10.71141-1.20356-16.86496-1.20356-5.35721,0-10.77777.40119-16.26168,1.20356-5.48994.80539-10.43993,2.27742-14.85903,4.4191-4.41608,2.1447-7.96644,5.15511-10.63901,9.03426-2.68162,3.88217-4.01791,8.77183-4.01791,14.65692,0,11.51077,3.61371,19.47419,10.84413,23.89027,7.22741,4.4191,16.99467,6.62714,29.31083,6.62714Z"/>
  </g>
  <g>
    <polygon class="uuid-6ecc5127-6d05-4942-854c-29e0a37ad679" points="299.63327 285.07714 299.64394 285.07158 299.64486 285.07065 299.63327 285.07714"/>
    <path class="uuid-6ecc5127-6d05-4942-854c-29e0a37ad679" d="m299.63837,285.07621c.00185-.00185.00371-.00371.00556-.00464-.00371.00185-.00695.00371-.01066.00556.00371-.00185.00788-.00464.01159-.00649-.00046,0-.00093.00093-.00093.00093q.00046,0,.00139-.00093c29.43439-25.44328,67.92526-49.50767,110.75311-68.06852,31.26256-13.54787,45.14704-49.51601,30.49104-79.77199l-15.72795-32.47037c-106.35747,22.54918-204.28254,87.76764-214.34143,166.20849-.00046.00278-.00093.00556-.00093.00835-4.77282,30.77387,10.41614,73.09078,38.61791,97.89979-15.12845-18.48853,27.62986-62.98738,50.20129-83.80018Z"/>
    <path class="uuid-6ecc5127-6d05-4942-854c-29e0a37ad679" d="m549.68738,362.2295c.00603-.03709.01113-.07047.01669-.10757-.00093.00556-.00232.01113-.00325.01669-.00464.0306-.00835.06027-.01345.09088Z"/>
    <path class="uuid-6ecc5127-6d05-4942-854c-29e0a37ad679" d="m519.24548,266.4829c-2.23711-2.6799-4.81037-4.83124-7.45874-6.98258.00603.00742.01066.01484.01669.02133.02272.02782.04173.05657.06398.08438-.0102-.00927-.02086-.01855-.03153-.02782,14.86092,18.47508-26.87643,62.11711-49.58788,83.12279l-.59162.5332c-29.25032,25.30094-67.45187,49.24478-109.98021,67.77225-31.20136,13.5933-45.04318,49.51323-30.40295,79.73582l15.81929,32.65768c103.8526-22.14348,199.66319-85.70996,212.60831-161.26134,5.15811-31.9228-3.39253-62.99897-30.45534-95.65573Z"/>
    <path class="uuid-6ecc5127-6d05-4942-854c-29e0a37ad679" d="m454.85046,328.67698c19.54008-17.42955,46.01453-48.21223,44.89435-60.67515-.45715-5.09308-3.38876-9.76834-6.79309-13.54644-5.20912-5.78105-12.47445-9.37981-20.21457-10.18358-14.81334-1.53828-30.16578-1.18281-45.64272.54901-44.33039,4.96041-85.99891,23.86936-119.4257,53.40643-.36987.32683-.74001.65539-1.11037.98568-19.54194,17.42769-46.01638,48.21037-44.8962,60.67515.31969,3.56037,1.8487,6.91627,3.90332,9.9043,5.20086,7.5636,13.65453,12.23626,22.77144,13.30355,25.92653,3.03514,51.10299.16275,77.59954-5.83998,25.82654-5.85094,50.02886-17.38173,70.93885-33.6303,5.76488-4.47973,11.84048-9.47798,17.97516-14.94866Z"/>
  </g>
</svg>