<svg xmlns="http://www.w3.org/2000/svg" width="32" height="32" viewBox="0 0 32 32"><rect width="32" height="32" fill="#e04c59" opacity="0"/><path d="M13,28H7l-.07,0a5.771,5.771,0,0,1-3.595-1.042c-.866-.794-1.1-1.987-1.2-3.656-.118-2.063-.231-9.588,0-12.507A4.88,4.88,0,0,1,6.955,6c1.951-.157,13.316-.3,18.067,0a4.77,4.77,0,0,1,4.838,4.747c.148,1.451.215,8.24.14,11.278a1,1,0,0,1-2-.05c.08-3.208,0-9.927-.134-11.059a1,1,0,0,1-.007-.124A2.77,2.77,0,0,0,25.024,8q-.044,0-.088,0c-4.569-.293-16.1-.153-17.85,0Q7.045,8,7,8A2.891,2.891,0,0,0,4.13,10.85q0,.035,0,.07c-.223,2.764-.111,10.291,0,12.263.08,1.325.247,2.013.559,2.3A4.521,4.521,0,0,0,7.035,26H13a1,1,0,0,1,0,2Z" fill="#fff"/><path d="M3,15.47a1,1,0,0,1-1-1c0-.043,0-4.375.181-7.714a5.031,5.031,0,0,1,1.565-3.89A5.069,5.069,0,0,1,7,2h4.919a3.537,3.537,0,0,1,2.913,1.575,1,1,0,0,1,.058.1l.829,1.619a1.263,1.263,0,0,0,1.1.567,1,1,0,0,1,.069,2A3.267,3.267,0,0,1,14,6.316q-.021-.034-.04-.07l-.82-1.6A1.539,1.539,0,0,0,11.9,4H7c-1.654,0-2.675.138-2.821,2.864C4,10.149,4,14.427,4,14.47A1,1,0,0,1,3,15.47Z" fill="#fff"/><path d="M23,31a36.514,36.514,0,0,1-4.956-.3,8.951,8.951,0,0,1-1.792-.409C15.217,29.911,15,29.3,15,28.86A3.2,3.2,0,0,1,16.061,26.4a7.51,7.51,0,0,1,1.907-1.148c1.47-.7,2.3-1.166,2.3-2.706a1,1,0,0,1,2,0c0,2.881-1.991,3.824-3.445,4.513-1.092.517-1.624.824-1.777,1.393a9.8,9.8,0,0,0,1.858.343A38.073,38.073,0,0,0,23,29a38.073,38.073,0,0,0,4.094-.2,9.792,9.792,0,0,0,1.858-.343c-.155-.587-.7-.916-1.828-1.479-1.462-.73-3.464-1.731-3.464-4.6a1,1,0,0,1,2,0c0,1.554.852,2.055,2.358,2.808a7.914,7.914,0,0,1,1.918,1.2A3.257,3.257,0,0,1,31,28.86c0,.442-.217,1.051-1.253,1.436a8.951,8.951,0,0,1-1.792.409A36.514,36.514,0,0,1,23,31Z" fill="#fff"/><path d="M22.82,24c-1.834,0-3.69-1.717-3.69-5,0-2.542,1.345-4,3.69-4s3.69,1.458,3.69,4C26.51,22.283,24.654,24,22.82,24Zm0-7c-1.4,0-1.69.8-1.69,2,0,2.2,1.011,3,1.69,3s1.69-.8,1.69-3C24.51,17.8,24.223,17,22.82,17Z" fill="#fff"/><path d="M8.63,25.05a5.294,5.294,0,0,1-2.886-.474c-.633-.449-.684-1.184-.684-2.026a.5.5,0,0,1,1,0c0,.775.064,1.07.263,1.211a5.44,5.44,0,0,0,2.307.289.5.5,0,0,1,0,1Z" fill="#fff"/></svg>