<svg xmlns="http://www.w3.org/2000/svg" width="32" height="32" viewBox="0 0 32 32"><g transform="translate(-0.07 -0.07)"><g transform="translate(0.07 0.07)" opacity="0"><rect width="32" height="32" fill="#e04c59"/></g><path d="M15.482,30.97a13.28,13.28,0,0,1-5.2-1.029,12.724,12.724,0,0,1-4.123-2.8A13.5,13.5,0,0,1,3.2,22.57a14.575,14.575,0,0,1-1-5.556,15.27,15.27,0,0,1,.965-5.252A12.7,12.7,0,0,1,5.872,7.446,13.525,13.525,0,0,1,15.921,3.5l.251,0A13.748,13.748,0,0,1,29.766,17.421a13.5,13.5,0,0,1-4.006,9.544,14.579,14.579,0,0,1-9.928,4C15.715,30.968,15.6,30.97,15.482,30.97ZM15.921,5.5A11.577,11.577,0,0,0,7.315,8.832a10.712,10.712,0,0,0-2.28,3.642A13.279,13.279,0,0,0,4.2,17.04a12.585,12.585,0,0,0,.866,4.8,11.513,11.513,0,0,0,2.52,3.9A10.734,10.734,0,0,0,11.064,28.1a11.359,11.359,0,0,0,4.72.868,12.589,12.589,0,0,0,8.578-3.431,11.507,11.507,0,0,0,3.4-8.141A11.748,11.748,0,0,0,16.147,5.5Z" transform="translate(0.007 0.01)" fill="#fff"/><path d="M16.49,16.078a.5.5,0,0,1-.46-.7c.162-.38.325-.845.483-1.294a6.39,6.39,0,0,1,1.163-2.406.5.5,0,0,1,.655.755,7.432,7.432,0,0,0-.875,1.982c-.163.464-.332.944-.506,1.354A.5.5,0,0,1,16.49,16.078Z" transform="translate(0.036 0.026)" fill="#fff"/><path d="M20.558,20.937a.5.5,0,0,1-.37-.163,18.56,18.56,0,0,0-3.406-2.928.5.5,0,1,1,.555-.832A19.561,19.561,0,0,1,20.927,20.1a.5.5,0,0,1-.369.837Z" transform="translate(0.037 0.038)" fill="#fff"/><path d="M19.187,14.226a1,1,0,0,1-.837-1.549,5.728,5.728,0,0,0-.14-.913,5.3,5.3,0,0,0-.879.444,1,1,0,0,1-1.922-.23c-.134-.985.941-1.535,1.345-1.743a13.037,13.037,0,0,1,1.261-.547,1.451,1.451,0,0,1,2,1l.007.031c.008.042.027.122.046.207.268,1.17.6,2.627-.4,3.181A1,1,0,0,1,19.187,14.226Z" transform="translate(0.036 0.023)" fill="#fff"/><path d="M20.566,22.134h-.039a3.066,3.066,0,0,1-.672-.068,1.225,1.225,0,0,1-.968-.856,1,1,0,0,1,1.547-1.078l.051,0a1,1,0,0,1,.449-1.731,1.113,1.113,0,0,1,.849.161,2.4,2.4,0,0,1,.794,1.655c.01.047.023.112.028.132l.006.026a1.416,1.416,0,0,1-.947,1.658,1,1,0,0,1-.2.043A8.327,8.327,0,0,1,20.566,22.134Z" transform="translate(0.043 0.042)" fill="#fff"/><path d="M16.06,27.352a1,1,0,0,1-1-1V25.28a1,1,0,0,1,2,0v1.072A1,1,0,0,1,16.06,27.352Z" transform="translate(0.035 0.055)" fill="#fff"/><path d="M.551-1A1.551,1.551,0,1,1-1,.551,1.553,1.553,0,0,1,.551-1Z" transform="translate(15.544 16.135)" fill="#fff"/><path d="M23.719,18.09a1,1,0,0,1-.127-1.992A11.994,11.994,0,0,1,25.2,16a1,1,0,1,1-.013,2,9.988,9.988,0,0,0-1.339.082A1.011,1.011,0,0,1,23.719,18.09Z" transform="translate(0.052 0.037)" fill="#fff"/><path d="M8.233,18H6.67a1,1,0,0,1,0-2H8.233a1,1,0,0,1,0,2Z" transform="translate(0.014 0.037)" fill="#fff"/><path d="M29.012,9.306a8.036,8.036,0,0,1-3.42-1.577,11.319,11.319,0,0,1-3.071-2.962,1.923,1.923,0,0,1-.143-2A3.632,3.632,0,0,1,25.708.95a5.541,5.541,0,0,1,4.716,2.662,4.927,4.927,0,0,1-.3,5.1l-.008.013A1.255,1.255,0,0,1,29.012,9.306ZM24.185,3.635a6.748,6.748,0,0,0,2.078,2.112,11.955,11.955,0,0,0,2.4,1.446A2.76,2.76,0,0,0,28.685,4.6a3.583,3.583,0,0,0-2.977-1.65A1.773,1.773,0,0,0,24.185,3.635Z" transform="translate(0.051 0.004)" fill="#fff"/><path d="M0,2-.05,2A.5.5,0,0,1-.5,1.454l.15-1.5A.5.5,0,0,1,.2-.5.5.5,0,0,1,.648.05L.5,1.553A.5.5,0,0,1,0,2Z" transform="translate(16.907 3.267)" fill="#fff"/><path d="M16.1,4.249a4.418,4.418,0,0,1-1.649-.318,1,1,0,0,1-.158-.08A1.523,1.523,0,0,1,13.68,2.3a1.418,1.418,0,0,1,1-1.211l.01,0a4.177,4.177,0,0,1,2.82.277,1,1,0,0,1,.251.171,1.531,1.531,0,0,1-.4,2.513,1,1,0,0,1-.17.06A4.441,4.441,0,0,1,16.1,4.249Z" transform="translate(0.032 0.004)" fill="#fff"/><path d="M4.563,30.943a1.136,1.136,0,0,1-.59-.162,1.677,1.677,0,0,1-.8-1.34A4.161,4.161,0,0,1,3.31,28.08a19.878,19.878,0,0,1,1.166-3.2,1,1,0,0,1,1.834.8A22.916,22.916,0,0,0,5.375,28.1c-.041.136-.074.257-.1.366a15.344,15.344,0,0,0,1.767-1.421,1,1,0,1,1,1.414,1.414,17.041,17.041,0,0,1-1.863,1.525A4,4,0,0,1,4.563,30.943Z" transform="translate(0.009 0.055)" fill="#fff"/><path d="M2.966,9.335a1.262,1.262,0,0,1-1.123-.6h0a4.911,4.911,0,0,1-.3-5.089A5.569,5.569,0,0,1,6.285.976,3.677,3.677,0,0,1,9.639,2.787a1.944,1.944,0,0,1-.178,2.022A11.6,11.6,0,0,1,6.387,7.758,8,8,0,0,1,2.966,9.335ZM6.285,2.976A3.613,3.613,0,0,0,3.279,4.635,2.71,2.71,0,0,0,3.3,7.227,11.837,11.837,0,0,0,5.73,5.766,6.9,6.9,0,0,0,7.818,3.642,1.833,1.833,0,0,0,6.285,2.976Z" transform="translate(0.004 0.004)" fill="#fff"/><path d="M27.23,30.952a2.073,2.073,0,0,1-.922-.259,8.794,8.794,0,0,1-1.082-.682,17.564,17.564,0,0,1-1.882-1.549,1,1,0,0,1,1.414-1.414,15.66,15.66,0,0,0,1.781,1.444,10.97,10.97,0,0,0-1.024-2.759,1,1,0,1,1,1.783-.906,13.873,13.873,0,0,1,1.14,2.977c.316,1.35.173,2.282-.439,2.849l-.007.007A1.094,1.094,0,0,1,27.23,30.952Z" transform="translate(0.053 0.055)" fill="#fff"/><path d="M7.45,12.716a.5.5,0,0,1-.428-.757,9.942,9.942,0,0,1,2.606-2.88.5.5,0,0,1,.6.8,8.947,8.947,0,0,0-2.345,2.592A.5.5,0,0,1,7.45,12.716Z" transform="translate(0.016 0.021)" fill="#fff"/><path d="M11.93,8.911a.5.5,0,0,1-.225-.947,6.852,6.852,0,0,1,1.827-.616.5.5,0,0,1,.183.983,5.852,5.852,0,0,0-1.56.526A.5.5,0,0,1,11.93,8.911Z" transform="translate(0.026 0.017)" fill="#fff"/></g></svg>