<?xml version="1.0" encoding="utf-8"?>
<!-- Generator: Adobe Illustrator 23.0.3, SVG Export Plug-In . SVG Version: 6.00 Build 0)  -->
<svg version="1.0" xmlns="http://www.w3.org/2000/svg" xmlns:xlink="http://www.w3.org/1999/xlink" x="0px" y="0px" width="96px"
	 height="96px" viewBox="0 0 96 96" enable-background="new 0 0 96 96" xml:space="preserve">
<g id="Data_Search">
</g>
<g id="Data_Import">
</g>
<g id="Data_Export">
</g>
<g id="XML_Document">
</g>
<g id="Add_Organization">
</g>
<g id="Display_Template">
</g>
<g id="Search">
</g>
<g id="Case_Person_1_">
	<g id="Compound_Shape_9_">
	</g>
</g>
<g id="eProcurement">
</g>
<g id="Add_to_Basket">
</g>
<g id="Food_and_Drink">
</g>
<g id="Matching_Criteria">
</g>
<g id="Pin">
</g>
<g id="Contract_Management">
</g>
<g id="ISP">
</g>
<g id="Application_Database_Setup">
</g>
<g id="Vacancy_List">
</g>
<g id="Year_Planner">
	<g id="Compound_Shape_4_">
	</g>
</g>
<g id="eSourcing_Tools">
</g>
<g id="Health_Insurance_1_">
</g>
<g id="Travel">
</g>
<g id="Job_Categories">
</g>
<g id="Layer_102_copy_13">
</g>
<g id="Standard_Reports">
</g>
<g id="Invoice_Management">
</g>
<g id="Newspaper">
</g>
<g id="TV_and_Books">
</g>
<g id="Employment_Contracts">
</g>
<g id="Successfully_Added_Organization">
</g>
<g id="Customer_Reports">
</g>
<g id="Sent">
</g>
<g id="Electricity_Bill">
</g>
<g id="Photo_and_Video">
</g>
<g id="Posting_Info">
</g>
<g id="Customer_Invoices">
	<g>
		<g>
			<path fill-rule="evenodd" clip-rule="evenodd" fill="#68A611" d="M45.8,37.5h2.5c0.4,0,0.8-0.3,0.8-0.8c0-0.4-0.3-0.8-0.8-0.8
				h-2.5c-0.4,0-0.8,0.3-0.8,0.8C45,37.2,45.3,37.5,45.8,37.5z M45.8,33.5h2.5c0.4,0,0.8-0.3,0.8-0.8c0-0.4-0.3-0.8-0.8-0.8h-2.5
				c-0.4,0-0.8,0.3-0.8,0.8C45,33.2,45.3,33.5,45.8,33.5z M45.8,41.5h2.5c0.4,0,0.8-0.3,0.8-0.8c0-0.4-0.3-0.8-0.8-0.8h-2.5
				c-0.4,0-0.8,0.3-0.8,0.8C45,41.2,45.3,41.5,45.8,41.5z M45.8,45.5h2.5c0.4,0,0.8-0.3,0.8-0.8c0-0.4-0.3-0.8-0.8-0.8h-2.5
				c-0.4,0-0.8,0.3-0.8,0.8C45,45.2,45.3,45.5,45.8,45.5z M36.2,76c-5.7,0.6-9.9-1.1-15.2-3.2c-1.7-0.7-2.3,0.5-0.4,1.3
				c5.1,2.1,10.1,4.2,16.1,3C37.7,76.7,37.3,75.9,36.2,76z M47.2,24.8c-0.7,0-1.3-0.2-1.8-0.5L45,25.6c0.5,0.2,0.9,0.4,1.4,0.4l0,1
				l1.3,0l0-1c1.2-0.2,2.1-1.1,2.1-2.1c0-1-0.5-1.6-1.8-2c-0.9-0.3-1.3-0.6-1.3-0.9c0-0.3,0.2-0.6,0.9-0.6c0.8,0,1.3,0.2,1.6,0.4
				l0.4-1.1c-0.4-0.3-1-0.5-1.5-0.5l0-1.2h-1.3l0,1.2c-1.1,0.2-1.7,1-1.7,2c0,1.1,0.8,1.6,1.9,2c0.8,0.3,1.2,0.5,1.2,0.9
				C48.2,24.6,47.8,24.8,47.2,24.8z M86.6,69.1l-4.7-17.4c-0.7-2.7-3.5-4.3-6.1-3.5L56,53.5V12H25L15,22v46h26.8l3.3,12.3
				c0.7,2.7,3.5,4.3,6.1,3.5l31.9-8.5C85.7,74.5,87.3,71.8,86.6,69.1z M76.3,50.1c0.5-0.1,1.1-0.1,1.6,0L64.4,69.5l-21.3-10
				c0.4-0.4,0.8-0.7,1.3-0.8L76.3,50.1z M17,21l7-7h0l0,0v6c0,0.6-0.4,1-1,1L17,21L17,21L17,21z M40.4,62.9l0.8,3.1H17l0-43h7
				c1.1,0,2-0.9,2-2v-7l28,0v40.1l-10.1,2.7C41.3,57.5,39.7,60.2,40.4,62.9z M47,79.7l-4.7-17.4c-0.2-0.6-0.1-1.1,0-1.7l15.4,7.2
				l-9.9,13.3C47.5,80.8,47.1,80.3,47,79.7z M82.5,73.3l-31.9,8.5c-0.5,0.1-1,0.1-1.5,0l10-13.3l5.2,2.4l0.4-0.6l0.6,0.4l3.3-4.7
				l15.3,6.6C83.5,72.9,83.1,73.2,82.5,73.3z M84.6,71.4l-15.2-6.5l9.8-14c0.4,0.4,0.7,0.9,0.9,1.4l4.7,17.4
				C84.8,70.2,84.8,70.8,84.6,71.4z M35.2,41.5c0.4,0,0.8-0.3,0.8-0.8c0-0.4-0.3-0.8-0.8-0.8h-7.5c-0.4,0-0.8,0.3-0.8,0.8
				c0,0.4,0.3,0.8,0.8,0.8H35.2z M40.2,36H22.8c-0.4,0-0.8,0.3-0.8,0.8c0,0.4,0.3,0.8,0.8,0.8h17.5c0.4,0,0.8-0.3,0.8-0.8
				C41,36.3,40.7,36,40.2,36z M41.2,20h-5.5c-0.4,0-0.8,0.3-0.8,0.8c0,0.4,0.3,0.8,0.8,0.8h5.5c0.4,0,0.8-0.3,0.8-0.8
				C42,20.3,41.7,20,41.2,20z M37.2,44H22.8c-0.4,0-0.8,0.3-0.8,0.8c0,0.4,0.3,0.8,0.8,0.8h14.5c0.4,0,0.8-0.3,0.8-0.8
				C38,44.3,37.7,44,37.2,44z M22.8,33.5h10.5c0.4,0,0.8-0.3,0.8-0.8c0-0.4-0.3-0.8-0.8-0.8H22.8c-0.4,0-0.8,0.3-0.8,0.8
				C22,33.2,22.3,33.5,22.8,33.5z M22.8,41.5h2.5c0.4,0,0.8-0.3,0.8-0.8c0-0.4-0.3-0.8-0.8-0.8h-2.5c-0.4,0-0.8,0.3-0.8,0.8
				C22,41.2,22.3,41.5,22.8,41.5z M30.8,21.5h2.5c0.4,0,0.8-0.3,0.8-0.8c0-0.4-0.3-0.8-0.8-0.8h-2.5c-0.4,0-0.8,0.3-0.8,0.8
				C30,21.2,30.3,21.5,30.8,21.5z M40.3,72.8c-5,0.1-10.1-0.7-13.1-1.8c-1.3-0.5-2.1,1-0.6,1.6c3.6,1,8.4,1.8,13.4,1.6
				C40.8,74.2,41.2,73.3,40.3,72.8z"/>
		</g>
	</g>
</g>
<g id="Drop_Files">
	<g id="Compound_Shape_3_">
	</g>
</g>
<g id="Mobile_Phone">
</g>
<g id="Sport">
</g>
<g id="Department_Admin">
</g>
<g id="Travel_and_Expenses">
</g>
<g id="Store">
	<g id="Compound_Shape_7_">
	</g>
</g>
<g id="Office_to_Rent">
</g>
<g id="Mobile_Location">
</g>
<g id="Filetype_Config">
</g>
<g id="Organization">
	<g id="Compound_Shape_13_">
	</g>
</g>
<g id="Add_Case_System">
</g>
<g id="Happy_File">
</g>
<g id="Transport">
</g>
<g id="Gaming">
</g>
<g id="Remove_Candidate">
</g>
<g id="Add_Case_Person">
</g>
<g id="Advanced_Time_Reporting_copy_12">
</g>
<g id="eInvoice">
	<g id="Compound_Shape_2_">
	</g>
</g>
<g id="CO2_Emissions">
</g>
<g id="Family">
</g>
<g id="Mobile_Unfriendly">
	<g id="Compound_Shape_6_">
	</g>
</g>
<g id="Mobile_Friendly">
	<g id="Compound_Shape_5_">
	</g>
</g>
<g id="Snap_It">
</g>
<g id="Clock">
</g>
<g id="HR_Employees_Talent">
</g>
<g id="Dispatcher">
</g>
<g id="Coffee_Cup">
</g>
<g id="Sound_and_Picture">
	<g id="Compound_Shape_1_">
	</g>
</g>
<g id="Current_Edit">
</g>
<g id="Export_Template">
</g>
<g id="Loked_File">
	<g id="Compound_Shape">
	</g>
</g>
<g id="Time_Reporting_and_HR">
</g>
<g id="Buyer">
</g>
<g id="Piggy_Bank">
</g>
<g id="Market">
</g>
<g id="eShopping">
</g>
<g id="Search_Template">
</g>
<g id="Thumbs_Up">
</g>
<g id="Time_Reporting">
</g>
<g id="Web-Based">
</g>
<g id="Lifestyle">
</g>
<g id="Stored_Applications">
</g>
<g id="Vacation">
</g>
<g id="Accounting">
</g>
<g id="Purchase_Order">
	<g id="Normal_1_">
	</g>
</g>
<g id="Hardware">
	<g id="Normal">
	</g>
</g>
<g id="Database_Setup">
</g>
<g id="Reports">
</g>
<g id="Clipboard">
</g>
<g id="Accounts_Receivable">
</g>
<g id="Invoice_Confirmation">
</g>
<g id="More">
</g>
<g id="Calendar">
	<g id="Compound_Shape_12_">
	</g>
</g>
<g id="Administration">
	<g id="Compound_Shape_11_">
	</g>
</g>
<g id="Admin">
	<g id="Compound_Shape_10_">
	</g>
</g>
<g id="Deleted_Application">
</g>
<g id="Case_System">
</g>
<g id="Payroll_and_HR">
</g>
<g id="End_User">
</g>
<g id="Gift">
</g>
<g id="Payslip">
</g>
<g id="Bank">
</g>
<g id="Image">
</g>
<g id="Services">
</g>
<g id="Smiley">
</g>
<g id="Guides" display="none" opacity="0.2">
	<rect display="inline" fill-rule="evenodd" clip-rule="evenodd" fill="#0089D9" width="96" height="96"/>
</g>
</svg>
