<?xml version="1.0" encoding="UTF-8"?>
<svg id="uuid-a5165135-1c5b-4a48-abfe-0d411f2a6010" xmlns="http://www.w3.org/2000/svg" viewBox="0 0 1966.24 411.5">
  <defs>
    <style>
      .cls-1 {
        fill: #1400ff;
      }

      .cls-1, .cls-2, .cls-3, .cls-4, .cls-5, .cls-6, .cls-7 {
        stroke-width: 0px;
      }

      .cls-2 {
        fill: #64e5db;
      }

      .cls-3 {
        fill: #003253;
      }

      .cls-4 {
        fill: #02d1e4;
      }

      .cls-5 {
        fill: #005f9e;
      }

      .cls-6 {
        fill: #0095f8;
      }

      .cls-7 {
        fill: #007aca;
      }
    </style>
  </defs>
  <g>
    <path class="cls-3" d="m525.58,118.43c9.38-2.67,21.56-5.22,36.57-7.63,15-2.41,31.61-3.62,49.83-3.62,17.14,0,31.48,2.35,43,7.03,11.52,4.69,20.7,11.25,27.53,19.69,6.83,8.44,11.65,18.63,14.47,30.55,2.81,11.92,4.22,24.98,4.22,39.18v118.15h-48.63v-110.52c0-11.25-.74-20.83-2.21-28.73-1.48-7.9-3.89-14.33-7.23-19.29-3.35-4.95-7.91-8.57-13.66-10.85-5.77-2.27-12.8-3.42-21.1-3.42-6.17,0-12.6.4-19.29,1.21-6.7.8-11.65,1.48-14.87,2.01v169.59h-48.63V118.43h0Z"/>
    <path class="cls-3" d="m738.37,217.7c0-18.49,2.74-34.69,8.24-48.63,5.49-13.93,12.79-25.52,21.9-34.76,9.1-9.24,19.55-16.21,31.35-20.9,11.79-4.68,23.84-7.03,36.17-7.03,28.94,0,51.5,8.98,67.72,26.93,16.21,17.95,24.31,44.75,24.31,80.37,0,2.68-.07,5.69-.2,9.04-.14,3.35-.34,6.37-.6,9.04h-138.65c1.34,16.88,7.3,29.94,17.88,39.18,10.58,9.24,25.92,13.87,46.01,13.87,11.79,0,22.57-1.07,32.35-3.22,9.78-2.14,17.48-4.42,23.11-6.83l6.43,39.79c-2.68,1.34-6.37,2.75-11.05,4.22-4.69,1.47-10.05,2.81-16.08,4.02-6.03,1.2-12.53,2.21-19.49,3.01-6.97.8-14.07,1.21-21.3,1.21-18.48,0-34.56-2.75-48.22-8.24s-24.92-13.13-33.76-22.91c-8.84-9.78-15.41-21.3-19.69-34.56-4.29-13.26-6.43-27.79-6.43-43.6h0Zm141.06-21.7c0-6.69-.94-13.06-2.81-19.09-1.88-6.03-4.62-11.25-8.24-15.67-3.62-4.42-8.04-7.9-13.26-10.45-5.22-2.54-11.45-3.82-18.69-3.82s-14.07,1.41-19.69,4.22c-5.63,2.81-10.39,6.5-14.27,11.05-3.89,4.56-6.9,9.78-9.04,15.67-2.15,5.9-3.62,11.92-4.42,18.08h90.42,0Z"/>
    <path class="cls-3" d="m965.99,56.14l48.63-8.04v63.5h74.75v40.59h-74.75v85.6c0,16.88,2.67,28.94,8.04,36.17,5.36,7.23,14.47,10.85,27.33,10.85,8.84,0,16.68-.94,23.51-2.81,6.83-1.87,12.26-3.62,16.27-5.22l8.04,38.58c-5.63,2.41-13,4.89-22.1,7.44-9.11,2.54-19.83,3.82-32.15,3.82-15.01,0-27.53-2.01-37.58-6.03-10.05-4.02-18.02-9.85-23.91-17.48-5.9-7.63-10.05-16.88-12.46-27.73-2.41-10.85-3.62-23.24-3.62-37.17V56.14h0Z"/>
    <path class="cls-3" d="m1190.62,321.78c-13.45-27.59-27.24-59.28-41.36-95.04-14.13-35.77-26.97-74.15-38.54-115.14h51.86c2.96,11.79,6.39,24.45,10.29,37.98,3.9,13.53,8.07,27.06,12.51,40.59,4.44,13.53,9.01,26.66,13.72,39.38,4.71,12.73,9.08,24.18,13.12,34.36,4.03-10.18,8.34-21.63,12.91-34.36,4.57-12.72,9.08-25.85,13.52-39.38,4.43-13.52,8.67-27.06,12.71-40.59,4.03-13.52,7.53-26.19,10.49-37.98h50.25c-11.57,40.99-24.41,79.37-38.54,115.14-14.13,35.77-27.91,67.45-41.36,95.04h-41.58,0Z"/>
    <path class="cls-3" d="m1393.78,50.11c0,9.11-2.95,16.34-8.84,21.7-5.9,5.36-12.86,8.04-20.9,8.04s-15.41-2.67-21.3-8.04c-5.9-5.36-8.84-12.59-8.84-21.7s2.94-16.74,8.84-22.1c5.89-5.36,12.99-8.04,21.3-8.04s15,2.68,20.9,8.04c5.89,5.36,8.84,12.73,8.84,22.1Zm-5.22,271.67h-48.63V111.6h48.63v210.18Z"/>
    <path class="cls-3" d="m1494.16,286.82c12.86,0,22.23-1.54,28.13-4.62,5.89-3.08,8.84-8.37,8.84-15.88,0-6.96-3.15-12.72-9.44-17.28-6.3-4.55-16.68-9.51-31.15-14.87-8.84-3.22-16.95-6.63-24.31-10.25-7.37-3.62-13.73-7.84-19.09-12.66-5.36-4.82-9.58-10.65-12.66-17.48-3.09-6.83-4.62-15.2-4.62-25.12,0-19.29,7.09-34.49,21.3-45.61,14.2-11.11,33.49-16.68,57.87-16.68,12.32,0,24.11,1.14,35.37,3.41,11.25,2.28,19.69,4.49,25.32,6.63l-8.84,39.38c-5.36-2.41-12.19-4.62-20.5-6.63-8.31-2.01-17.95-3.01-28.94-3.01-9.91,0-17.95,1.68-24.11,5.02-6.17,3.35-9.24,8.51-9.24,15.47,0,3.48.6,6.57,1.81,9.24,1.21,2.68,3.28,5.16,6.23,7.44,2.94,2.28,6.83,4.56,11.65,6.83,4.82,2.28,10.71,4.62,17.68,7.03,11.52,4.29,21.3,8.51,29.34,12.66,8.04,4.16,14.67,8.84,19.89,14.07,5.22,5.23,9.04,11.19,11.45,17.88,2.41,6.7,3.62,14.74,3.62,24.11,0,20.09-7.44,35.3-22.31,45.61-14.87,10.31-36.11,15.47-63.7,15.47-18.49,0-33.36-1.55-44.61-4.62-11.25-3.08-19.16-5.56-23.71-7.44l8.44-40.59c7.23,2.95,15.87,5.76,25.92,8.44,10.05,2.68,21.5,4.02,34.36,4.02h0Z"/>
    <path class="cls-3" d="m1806.29,216.49c0,16.61-2.41,31.75-7.23,45.41-4.82,13.66-11.66,25.32-20.5,34.96-8.84,9.64-19.49,17.15-31.95,22.5-12.46,5.36-26.19,8.04-41.19,8.04s-28.67-2.68-40.99-8.04c-12.33-5.36-22.91-12.86-31.75-22.5-8.84-9.65-15.74-21.3-20.7-34.96-4.96-13.66-7.43-28.8-7.43-45.41s2.47-31.68,7.43-45.21c4.96-13.53,11.92-25.12,20.9-34.76,8.97-9.65,19.62-17.08,31.95-22.3,12.32-5.23,25.85-7.84,40.59-7.84s28.33,2.61,40.79,7.84c12.46,5.22,23.11,12.66,31.95,22.3,8.84,9.65,15.73,21.23,20.69,34.76,4.95,13.53,7.44,28.6,7.44,45.21h0Zm-49.83,0c0-20.9-4.49-37.44-13.46-49.63-8.98-12.19-21.5-18.29-37.58-18.29s-28.6,6.1-37.58,18.29c-8.98,12.2-13.46,28.73-13.46,49.63s4.48,37.91,13.46,50.23c8.97,12.33,21.5,18.48,37.58,18.48s28.59-6.16,37.58-18.48c8.97-12.32,13.46-29.07,13.46-50.23Z"/>
    <path class="cls-3" d="m1957.8,155.4c-4.02-1.34-9.58-2.74-16.68-4.22-7.1-1.47-15.34-2.21-24.72-2.21-5.36,0-11.05.54-17.08,1.61-6.03,1.07-10.25,2.01-12.66,2.81v168.38h-48.63V121.65c9.38-3.48,21.1-6.76,35.16-9.84,14.06-3.08,29.67-4.62,46.82-4.62,3.22,0,6.96.2,11.25.6,4.28.4,8.57.94,12.86,1.61,4.28.67,8.44,1.48,12.46,2.41,4.02.94,7.23,1.81,9.65,2.61l-8.44,40.99h0Z"/>
  </g>
  <g>
    <g>
      <path class="cls-6" d="m261.5,158.08h0c-64.97-40.09-130.59-80.85-155.59-55.84l-1.97,1.97c-17.36,21.56,6.16,68.43,36.68,119.47,5.85,9.79,11.96,19.73,18.09,29.68,65.1,40.19,130.9,81.16,156,56.11,24.42-24.42-14.21-87.91-53.21-151.38h0Z"/>
      <path class="cls-5" d="m103.94,104.21h0s-40.55,40.44-40.55,40.44l-53.33,53.45c-.53.41-1.41,1.17-2.41,2.17-32.2,32.2,45.06,132.02,89.03,211.24l49.55-49.55c13.99-13.99,22.85-32.29,25.15-51.94,2.3-19.65-2.1-39.5-12.48-56.34l-.18-.32c-6.13-9.95-12.24-19.89-18.09-29.68-30.52-51.04-54.04-97.91-36.68-119.47h0Z"/>
      <path class="cls-4" d="m323.94,0l-49.53,49.46c-14.08,13.98-23.02,32.32-25.37,52.02-2.35,19.7,2.02,39.63,12.41,56.53l.04.07h0c39.01,63.47,77.63,126.97,53.21,151.39l97.92-97.89s0,0,0,0l.27-.27C445.18,178.95,367.86,79.24,323.94,0h0Z"/>
      <path class="cls-1" d="m412.64,211.57c.09-.09.18-.16.27-.25-.09.09-.18.17-.27.25,0,0,0,0,0,0h0s0,0,0,0Z"/>
    </g>
    <g>
      <path class="cls-6" d="m261.5,158.08s0,0,0,0h0c-64.97-40.09-130.59-80.85-155.59-55.84l-1.97,1.97c-17.36,21.56,6.16,68.43,36.68,119.47,5.85,9.79,11.96,19.73,18.09,29.68,65.1,40.19,130.9,81.16,156,56.11,24.42-24.42-14.21-87.91-53.21-151.38h0Z"/>
      <path class="cls-5" d="m158.89,253.68l-.18-.32c-.08-.05-.15-.09-.23-.14-61.44-38.06-122.51-75.14-148.43-55.13-.53.41-1.41,1.17-2.41,2.17-32.2,32.2,45.06,132.02,89.03,211.24l49.55-49.55c13.99-13.99,22.85-32.29,25.15-51.94,2.3-19.65-2.1-39.5-12.48-56.34h0Z"/>
      <path class="cls-7" d="m140.62,223.68c-30.52-51.04-54.04-97.91-36.68-119.47h0s-40.55,40.44-40.55,40.44l-53.33,53.45c25.92-20.01,86.99,17.06,148.43,55.13.08.05.15.09.23.14-6.13-9.95-12.24-19.89-18.09-29.68h0Z"/>
      <path class="cls-2" d="m323.94,0l-49.53,49.46c-14.08,13.98-23.02,32.32-25.37,52.02-2.35,19.7,2.02,39.62,12.41,56.53l.04.07s0,0,0,0c63.47,38.7,126.53,77.37,151.14,53.49l.27-.27C445.18,178.95,367.86,79.24,323.94,0h0Z"/>
      <polygon class="cls-2" points="261.5 158.08 261.5 158.08 261.5 158.08 261.5 158.08"/>
      <path class="cls-4" d="m412.91,211.32c-.09.09-.18.17-.27.25h0c.09-.08.18-.16.27-.25h0Z"/>
      <path class="cls-4" d="m261.5,158.08s0,0,0,0c0,0,0,0,0,0,39.01,63.47,77.63,126.97,53.21,151.38l97.92-97.89h0c-24.61,23.88-87.67-14.8-151.14-53.49h0Z"/>
    </g>
  </g>
</svg>