<?xml version="1.0" encoding="UTF-8"?>
<svg id="Layer_1" data-name="Layer 1" xmlns="http://www.w3.org/2000/svg" xmlns:xlink="http://www.w3.org/1999/xlink" viewBox="0 0 137.19 134.23">
  <defs>
    <style>
      .cls-1, .cls-2, .cls-3, .cls-4, .cls-5, .cls-6, .cls-7 {
        fill: none;
      }

      .cls-8 {
        fill: url(#linear-gradient);
      }

      .cls-2 {
        clip-path: url(#clippath-5);
      }

      .cls-3 {
        clip-path: url(#clippath-3);
      }

      .cls-4 {
        clip-path: url(#clippath-4);
      }

      .cls-5 {
        clip-path: url(#clippath-2);
      }

      .cls-6 {
        clip-path: url(#clippath-1);
      }

      .cls-9 {
        fill: #00d2e5;
      }

      .cls-10 {
        fill: url(#linear-gradient-3);
      }

      .cls-11 {
        fill: url(#linear-gradient-4);
      }

      .cls-12 {
        fill: url(#linear-gradient-2);
      }

      .cls-13 {
        fill: url(#linear-gradient-5);
      }

      .cls-7 {
        clip-path: url(#clippath);
      }
    </style>
    <clipPath id="clippath">
      <path class="cls-1" d="m34.55,33.35l-.64.64c-5.66,7.03,2.01,22.32,11.97,38.97,1.91,3.19,3.9,6.44,5.9,9.68,21.24,13.11,42.7,26.47,50.89,18.3,7.97-7.96-4.63-28.68-17.36-49.38-16.68-10.29-33.49-20.72-43.87-20.72-2.81,0-5.15.76-6.89,2.5"/>
    </clipPath>
    <linearGradient id="linear-gradient" x1="0" y1="134.23" x2="1" y2="134.23" gradientTransform="translate(-14315.72 34.42) rotate(90) scale(107.17 -107.17)" gradientUnits="userSpaceOnUse">
      <stop offset="0" stop-color="#0096fb"/>
      <stop offset="0" stop-color="#0096fb"/>
      <stop offset="1" stop-color="#00d2e6"/>
      <stop offset="1" stop-color="#00d2e6"/>
    </linearGradient>
    <clipPath id="clippath-1">
      <path class="cls-1" d="m3.28,64.62c-.17.13-.46.38-.79.71-10.5,10.5,14.7,43.06,29.04,68.91l16.16-16.16c4.56-4.56,7.45-10.53,8.2-16.94s-.69-12.89-4.07-18.38l-.06-.1s-.05-.03-.08-.04c-16.16-10.01-32.24-19.81-42.3-19.81-2.42,0-4.48.57-6.12,1.83"/>
    </clipPath>
    <linearGradient id="linear-gradient-2" x1="0" y1="134.13" x2="1" y2="134.13" gradientTransform="translate(-12911.02 42.12) rotate(90) scale(96.44 -96.44)" gradientUnits="userSpaceOnUse">
      <stop offset="0" stop-color="#005fa2"/>
      <stop offset="1" stop-color="#007bce"/>
      <stop offset="1" stop-color="#007bce"/>
    </linearGradient>
    <clipPath id="clippath-2">
      <path class="cls-1" d="m20.67,47.18L3.28,64.62c8.45-6.53,28.38,5.56,48.42,17.98.03.01.05.03.08.04-2-3.24-3.99-6.49-5.9-9.68-9.95-16.65-17.62-31.93-11.97-38.97l-13.23,13.19Zm13.23-13.19h0s0,0,0,0h0"/>
    </clipPath>
    <linearGradient id="linear-gradient-3" x1="0" y1="134.25" x2="1" y2="134.25" gradientTransform="translate(-10383.87 21.57) rotate(90) scale(77.55 -77.55)" gradientUnits="userSpaceOnUse">
      <stop offset="0" stop-color="#007bce"/>
      <stop offset="1" stop-color="#0096fb"/>
      <stop offset="1" stop-color="#0096fb"/>
    </linearGradient>
    <clipPath id="clippath-3">
      <path class="cls-1" d="m105.67,0l-16.16,16.13c-4.59,4.56-7.51,10.54-8.28,16.97-.77,6.43.66,12.92,4.05,18.44v.02s.01,0,.01,0c20.7,12.62,41.27,25.24,49.3,17.45l.09-.09C145.22,58.37,120,25.85,105.67,0Z"/>
    </clipPath>
    <linearGradient id="linear-gradient-4" x1="0" y1="134.3" x2="1" y2="134.3" gradientTransform="translate(-15945.61 -49.25) rotate(90) scale(119.57 -119.57)" gradientUnits="userSpaceOnUse">
      <stop offset="0" stop-color="#00d2e6"/>
      <stop offset="1" stop-color="#00e6dc"/>
    </linearGradient>
    <clipPath id="clippath-4">
      <rect class="cls-1" width="137.19" height="134.23"/>
    </clipPath>
    <clipPath id="clippath-5">
      <path class="cls-1" d="m134.6,69.02l-.02.02s.02-.02.02-.02h0Zm-31.94,31.93l31.92-31.91c-8.05,7.74-28.6-4.86-49.28-17.47,0,0,0,0,0,0,12.72,20.71,25.32,41.42,17.36,49.38"/>
    </clipPath>
    <linearGradient id="linear-gradient-5" x1="0" y1="134.12" x2="1" y2="134.12" gradientTransform="translate(-2665.09 64.74) rotate(90) scale(20.69 -20.69)" gradientUnits="userSpaceOnUse">
      <stop offset="0" stop-color="#00d2e6"/>
      <stop offset="1" stop-color="#00e6dc"/>
    </linearGradient>
  </defs>
  <g class="cls-7">
    <rect class="cls-8" x="13.58" y="14.73" width="111.72" height="110.51" transform="translate(-26.91 49.09) rotate(-32.99)"/>
  </g>
  <g class="cls-6">
    <rect class="cls-12" x="-21.52" y="51.42" width="91.68" height="94.18" transform="translate(-45.89 25.26) rotate(-29.92)"/>
  </g>
  <g class="cls-5">
    <rect class="cls-10" x="-6.55" y="24.23" width="68.14" height="68.17" transform="translate(-29.99 29.15) rotate(-37.84)"/>
  </g>
  <g class="cls-3">
    <rect class="cls-11" x="69.01" y="-8.95" width="87.66" height="94.7" transform="translate(-6.29 42.24) rotate(-20.64)"/>
  </g>
  <g class="cls-4">
    <path class="cls-9" d="m134.69,68.93s-.06.05-.09.08h0s.06-.05.09-.08"/>
  </g>
  <g class="cls-2">
    <rect class="cls-13" x="75.71" y="42.01" width="68.48" height="68.5" transform="translate(-23.84 74.47) rotate(-33.98)"/>
  </g>
</svg>