<?xml version="1.0" encoding="UTF-8"?>
<svg id="Layer_2" data-name="Layer 2" xmlns="http://www.w3.org/2000/svg" viewBox="0 0 1239.45 423.08">
  <defs>
    <style>
      .cls-1 {
        fill: #003253;
      }

      .cls-1, .cls-2, .cls-3, .cls-4 {
        stroke-width: 0px;
      }

      .cls-2 {
        fill: #ffbf3f;
      }

      .cls-3 {
        fill: #0095f8;
      }

      .cls-4 {
        fill: #fedb00;
      }
    </style>
  </defs>
  <g id="desz">
    <g>
      <g>
        <path class="cls-1" d="M526.2,210.11h52.18v83.12l63.71-83.12h63.71l-75.84,95.56,32.46,45.81c8.8,12.44,20.33,18.81,34.58,18.81h9.41v49.15h-15.17c-33.98,0-58.55-12.44-73.72-37.31l-21.84-33.07-17.29,21.84v48.54h-52.18v-209.33Z"/>
        <path class="cls-1" d="M785.59,349.06l-78.88-138.95h59.46l46.11,84.64,23.97-43.69c9.1-17.6,12.44-30.03,12.14-40.96h55.52c0,18.51-5.76,31.55-19.11,55.52l-47.33,83.43v70.38h-51.88v-70.38Z"/>
        <path class="cls-1" d="M894.8,314.78c0-61.58,47.63-108.3,111.04-108.3,54.91,0,98.29,35.49,107.09,84.94h-55.52c-6.98-20.63-27.3-34.58-51.57-34.58-32.76,0-57.64,24.88-57.64,57.94s24.88,57.94,57.64,57.94c24.27,0,44.6-13.96,51.57-34.58h55.52c-8.8,49.45-52.18,84.94-107.09,84.94-63.41,0-111.04-46.72-111.04-108.3Z"/>
      </g>
      <rect class="cls-1" x="0" y="0" width="419.45" height="419.45" rx="60" ry="60"/>
      <g>
        <path class="cls-1" d="M524.62,56.33c4.65-1.33,10.7-2.59,18.15-3.79,7.44-1.2,15.68-1.79,24.73-1.79,8.5,0,15.62,1.17,21.33,3.49,5.71,2.33,10.27,5.58,13.66,9.77,3.39,4.19,5.78,9.24,7.18,15.15,1.4,5.92,2.09,12.4,2.09,19.44v58.62h-24.13v-54.83c0-5.58-.37-10.33-1.1-14.26-.73-3.92-1.93-7.11-3.59-9.57-1.66-2.46-3.92-4.25-6.78-5.38-2.86-1.13-6.35-1.7-10.47-1.7-3.06,0-6.25.2-9.57.6-3.32.4-5.78.73-7.38,1v84.15h-24.13V56.33Z"/>
        <path class="cls-1" d="M628.51,105.59c0-9.17,1.36-17.21,4.09-24.13,2.72-6.91,6.35-12.66,10.87-17.25,4.52-4.59,9.7-8.04,15.55-10.37,5.85-2.32,11.83-3.49,17.95-3.49,14.36,0,25.55,4.46,33.6,13.36,8.04,8.91,12.06,22.2,12.06,39.88,0,1.33-.04,2.83-.1,4.49-.07,1.66-.17,3.16-.3,4.49h-68.79c.66,8.37,3.62,14.85,8.87,19.44,5.25,4.59,12.86,6.88,22.83,6.88,5.85,0,11.2-.53,16.05-1.6,4.85-1.06,8.67-2.19,11.46-3.39l3.19,19.74c-1.33.67-3.16,1.36-5.48,2.09-2.33.73-4.98,1.4-7.98,1.99s-6.22,1.1-9.67,1.5c-3.46.4-6.98.6-10.57.6-9.17,0-17.15-1.36-23.93-4.09-6.78-2.72-12.36-6.51-16.75-11.37-4.39-4.85-7.65-10.57-9.77-17.15-2.13-6.58-3.19-13.79-3.19-21.63ZM698.5,94.82c0-3.32-.47-6.48-1.4-9.47-.93-2.99-2.29-5.58-4.09-7.78-1.79-2.19-3.99-3.92-6.58-5.18-2.59-1.26-5.68-1.89-9.27-1.89s-6.98.7-9.77,2.09c-2.79,1.4-5.15,3.22-7.08,5.48-1.93,2.26-3.42,4.85-4.49,7.78-1.06,2.93-1.79,5.92-2.19,8.97h44.87Z"/>
        <path class="cls-1" d="M743.96,25.43l24.13-3.99v31.5h37.09v20.14h-37.09v42.47c0,8.37,1.33,14.36,3.99,17.95,2.66,3.59,7.18,5.38,13.56,5.38,4.39,0,8.28-.46,11.67-1.4,3.39-.93,6.08-1.79,8.08-2.59l3.99,19.14c-2.79,1.2-6.45,2.43-10.97,3.69-4.52,1.26-9.84,1.89-15.95,1.89-7.45,0-13.66-1-18.64-2.99-4.98-1.99-8.94-4.89-11.86-8.67-2.93-3.79-4.99-8.37-6.18-13.76s-1.79-11.53-1.79-18.44V25.43Z"/>
        <path class="cls-1" d="M852.38,157.23c-6.67-13.69-13.52-29.41-20.52-47.16-7.01-17.75-13.38-36.79-19.12-57.13h25.73c1.47,5.85,3.17,12.13,5.1,18.84,1.94,6.71,4,13.43,6.21,20.14,2.2,6.71,4.47,13.23,6.81,19.54,2.34,6.31,4.51,12,6.51,17.05,2-5.05,4.14-10.73,6.4-17.05,2.27-6.31,4.51-12.83,6.71-19.54,2.2-6.71,4.3-13.42,6.3-20.14,2-6.71,3.74-12.99,5.21-18.84h24.93c-5.74,20.34-12.11,39.38-19.12,57.13-7.01,17.75-13.85,33.47-20.52,47.16h-20.63Z"/>
        <path class="cls-1" d="M954.32,22.44c0,4.52-1.46,8.11-4.39,10.77-2.93,2.66-6.38,3.99-10.37,3.99s-7.65-1.33-10.57-3.99c-2.93-2.66-4.39-6.25-4.39-10.77s1.46-8.31,4.39-10.97c2.92-2.66,6.45-3.99,10.57-3.99s7.44,1.33,10.37,3.99c2.92,2.66,4.39,6.32,4.39,10.97ZM951.73,157.23h-24.13V52.95h24.13v104.28Z"/>
        <path class="cls-1" d="M1005.56,139.88c6.38,0,11.03-.76,13.96-2.29,2.92-1.53,4.39-4.15,4.39-7.88,0-3.46-1.56-6.31-4.69-8.57-3.12-2.26-8.28-4.72-15.45-7.38-4.39-1.6-8.41-3.29-12.06-5.08-3.66-1.79-6.81-3.89-9.47-6.28-2.66-2.39-4.75-5.28-6.28-8.67-1.53-3.39-2.29-7.54-2.29-12.46,0-9.57,3.52-17.11,10.57-22.63,7.04-5.51,16.62-8.27,28.71-8.27,6.11,0,11.96.57,17.55,1.69,5.58,1.13,9.77,2.23,12.56,3.29l-4.39,19.54c-2.66-1.2-6.05-2.29-10.17-3.29-4.12-1-8.91-1.5-14.36-1.5-4.92,0-8.91.83-11.96,2.49-3.06,1.66-4.59,4.22-4.59,7.68,0,1.73.3,3.26.9,4.59.6,1.33,1.63,2.56,3.09,3.69,1.46,1.13,3.39,2.26,5.78,3.39,2.39,1.13,5.32,2.29,8.77,3.49,5.71,2.13,10.57,4.22,14.56,6.28,3.99,2.06,7.28,4.39,9.87,6.98,2.59,2.59,4.49,5.55,5.68,8.87,1.2,3.32,1.79,7.31,1.79,11.96,0,9.97-3.69,17.52-11.07,22.63-7.38,5.12-17.91,7.68-31.6,7.68-9.17,0-16.55-.77-22.13-2.29-5.58-1.53-9.51-2.76-11.76-3.69l4.19-20.14c3.59,1.46,7.88,2.86,12.86,4.19,4.98,1.33,10.67,1.99,17.05,1.99Z"/>
        <path class="cls-1" d="M1161.89,104.99c0,8.24-1.2,15.75-3.59,22.53-2.39,6.78-5.78,12.56-10.17,17.35-4.39,4.79-9.67,8.51-15.85,11.17s-13,3.99-20.44,3.99-14.23-1.33-20.34-3.99c-6.12-2.66-11.37-6.38-15.75-11.17-4.39-4.79-7.81-10.57-10.27-17.35-2.46-6.78-3.69-14.29-3.69-22.53s1.23-15.72,3.69-22.43c2.46-6.71,5.91-12.46,10.37-17.25,4.45-4.79,9.74-8.47,15.85-11.07,6.11-2.59,12.83-3.89,20.14-3.89s14.06,1.3,20.24,3.89,11.46,6.28,15.85,11.07c4.39,4.79,7.81,10.54,10.27,17.25,2.46,6.71,3.69,14.19,3.69,22.43ZM1137.16,104.99c0-10.37-2.23-18.58-6.68-24.63-4.46-6.05-10.67-9.07-18.64-9.07s-14.19,3.03-18.64,9.07c-4.46,6.05-6.68,14.26-6.68,24.63s2.22,18.81,6.68,24.92c4.45,6.12,10.67,9.17,18.64,9.17s14.19-3.06,18.64-9.17c4.45-6.11,6.68-14.42,6.68-24.92Z"/>
        <path class="cls-1" d="M1235.26,74.68c-1.99-.66-4.75-1.36-8.28-2.09-3.52-.73-7.61-1.1-12.26-1.1-2.66,0-5.48.27-8.47.8-2.99.53-5.08,1-6.28,1.4v83.55h-24.13V57.93c4.65-1.73,10.47-3.36,17.45-4.89,6.98-1.53,14.72-2.29,23.23-2.29,1.59,0,3.46.1,5.58.3,2.12.2,4.25.47,6.38.8,2.12.33,4.19.73,6.18,1.2,1.99.47,3.59.9,4.79,1.3l-4.19,20.34Z"/>
      </g>
      <g>
        <path class="cls-2" d="M258.36,248.94l-33.84-15.21v96.67l84.84,37.96c18.89-47.06-3.94-100.52-50.99-119.42Z"/>
        <path class="cls-3" d="M215.67,229.75h0c0-.19,0-8.19,0-15.02-9.98,4.79-19.65,8.65-28.5,12.18-20.62,8.22-38.42,15.33-49.63,29.78-11.96,15.42-8.11,37.92-8.07,38.17l.02.1c2.58,21.14,12.29,36.19,24.33,46.87,25.67,22.77,61.88,25.72,61.88,25.72v-41.11s0,0,0,0h.01s-.03-96.68-.03-96.68h0Z"/>
        <path class="cls-4" d="M314.28,80.65c-1.46-9.14-4.33-18.2-8.71-26.9-.14-.27-.27-.54-.41-.81-35.08,19.89-118.16,66.58-152.12,86.26-48.58,28.15-64.77,92.71-32.17,135.85,1.17-7.69,3.89-16.29,9.69-23.76,12.68-16.35,31.52-23.87,53.34-32.57,11.8-4.71,23.96-9.56,36.56-16.3,1.4-.75,2.81-1.52,4.23-2.32,4.54-2.57,9.22-5.08,13.75-7.52,10-5.38,19.77-10.64,28.39-16.52,17.45-9.31,30.69-23.49,38.91-39.98,8.44-16.95,11.58-36.34,8.54-55.43Z"/>
      </g>
    </g>
  </g>
</svg>