<?xml version="1.0" encoding="UTF-8"?>
<svg id="Layer_2" data-name="Layer 2" xmlns="http://www.w3.org/2000/svg" viewBox="0 0 1936.65 416.72">
  <defs>
    <style>
      .cls-1 {
        fill: #33a80a;
      }

      .cls-1, .cls-2, .cls-3, .cls-4, .cls-5, .cls-6, .cls-7, .cls-8, .cls-9, .cls-10, .cls-11 {
        stroke-width: 0px;
      }

      .cls-2 {
        fill: #1d8f00;
      }

      .cls-3 {
        fill: #2ca000;
      }

      .cls-4 {
        fill: #2d9e09;
      }

      .cls-5 {
        fill: #53bf27;
      }

      .cls-6 {
        fill: #229300;
      }

      .cls-7 {
        fill: #47b823;
      }

      .cls-8 {
        fill: #30a611;
      }

      .cls-9 {
        fill: #36aa0b;
      }

      .cls-10 {
        fill: #fff;
      }

      .cls-11 {
        fill: #319911;
      }
    </style>
  </defs>
  <g id="desz">
    <g>
      <g>
        <path class="cls-10" d="M577.79,212.14c0-21.91-2.74-37.74-8.22-47.5-5.48-9.75-15.7-14.63-30.67-14.63-5.35,0-11.22.4-17.64,1.2s-11.22,1.47-14.43,2.01v169.16h-48.5V119.55c9.35-2.67,21.58-5.21,36.68-7.62,15.1-2.4,31.06-3.61,47.9-3.61,14.43,0,26.26,1.87,35.48,5.61,9.22,3.75,16.9,8.69,23.05,14.83,2.94-2.14,6.68-4.41,11.22-6.82,4.54-2.4,9.62-4.61,15.23-6.61,5.61-2.01,11.55-3.67,17.84-5.01,6.27-1.34,12.62-2.01,19.04-2.01,16.3,0,29.73,2.34,40.28,7.02,10.56,4.68,18.84,11.22,24.85,19.64,6.01,8.42,10.15,18.58,12.43,30.47,2.27,11.89,3.41,24.92,3.41,39.08v117.85h-48.5v-110.24c0-21.91-2.67-37.74-8.02-47.5-5.35-9.75-15.63-14.63-30.87-14.63-7.75,0-15.1,1.27-22.05,3.81-6.95,2.54-12.16,5.01-15.63,7.41,2.14,6.68,3.61,13.77,4.41,21.25.8,7.48,1.2,15.5,1.2,24.05v115.85h-48.5v-110.24Z"/>
        <path class="cls-10" d="M866,107.52c16.03,0,29.52,2.01,40.48,6.02,10.95,4.01,19.71,9.62,26.26,16.83,6.55,7.21,11.23,15.97,14.03,26.26,2.81,10.29,4.21,21.59,4.21,33.87v127.07c-7.49,1.6-18.78,3.54-33.87,5.81-15.1,2.26-32.13,3.41-51.11,3.41-12.56,0-24.05-1.2-34.47-3.61-10.42-2.4-19.31-6.27-26.66-11.62-7.35-5.34-13.1-12.28-17.24-20.84-4.15-8.55-6.21-19.1-6.21-31.67s2.33-22.17,7.01-30.46c4.67-8.28,11.02-15.03,19.04-20.24,8.02-5.21,17.3-8.95,27.86-11.22,10.56-2.27,21.58-3.41,33.07-3.41,5.34,0,10.95.34,16.84,1.01,5.88.67,12.16,1.8,18.84,3.4v-8.02c0-5.61-.67-10.95-2-16.04-1.34-5.07-3.68-9.55-7.01-13.43-3.34-3.87-7.76-6.87-13.23-9.02-5.48-2.13-12.37-3.21-20.65-3.21-11.22,0-21.51.8-30.87,2.41-9.36,1.6-16.97,3.47-22.85,5.61l-6.01-39.28c6.14-2.14,15.1-4.27,26.86-6.42,11.76-2.13,24.32-3.21,37.68-3.21ZM870.01,288.31c14.96,0,26.32-.8,34.07-2.41v-53.71c-2.67-.8-6.55-1.6-11.62-2.4-5.08-.8-10.69-1.2-16.84-1.2-5.35,0-10.76.41-16.23,1.2-5.48.8-10.42,2.28-14.83,4.41-4.41,2.15-7.95,5.15-10.62,9.02-2.68,3.88-4.01,8.76-4.01,14.63,0,11.5,3.61,19.45,10.82,23.85,7.22,4.41,16.97,6.62,29.26,6.62Z"/>
        <path class="cls-10" d="M1050.29,322.38c-13.41-27.52-27.17-59.12-41.26-94.8-14.09-35.68-26.9-73.96-38.44-114.84h51.73c2.95,11.76,6.37,24.39,10.26,37.88,3.89,13.5,8.05,27,12.48,40.49,4.43,13.49,8.99,26.59,13.68,39.28,4.7,12.69,9.06,24.12,13.09,34.27,4.02-10.15,8.31-21.58,12.88-34.27,4.56-12.69,9.06-25.79,13.48-39.28,4.42-13.49,8.65-26.99,12.68-40.49,4.02-13.49,7.51-26.12,10.47-37.88h50.12c-11.54,40.89-24.35,79.16-38.44,114.84-14.09,35.68-27.84,67.28-41.26,94.8h-41.47Z"/>
        <path class="cls-10" d="M1173.85,218.56c0-18.44,2.74-34.61,8.22-48.51,5.47-13.89,12.76-25.45,21.85-34.67,9.08-9.22,19.5-16.17,31.26-20.84,11.76-4.68,23.78-7.02,36.08-7.02,28.86,0,51.37,8.96,67.54,26.86,16.16,17.91,24.25,44.63,24.25,80.17,0,2.68-.07,5.68-.2,9.02-.14,3.35-.34,6.35-.6,9.02h-138.29c1.34,16.83,7.28,29.86,17.84,39.08,10.55,9.22,25.85,13.83,45.89,13.83,11.76,0,22.51-1.06,32.27-3.21,9.75-2.13,17.44-4.4,23.05-6.81l6.41,39.68c-2.67,1.34-6.35,2.74-11.02,4.21-4.68,1.47-10.02,2.8-16.03,4.01-6.01,1.2-12.5,2.21-19.44,3.01-6.96.8-14.03,1.2-21.25,1.2-18.44,0-34.47-2.74-48.1-8.21-13.63-5.47-24.85-13.09-33.67-22.85-8.82-9.75-15.37-21.24-19.64-34.48-4.28-13.23-6.41-27.72-6.41-43.49ZM1314.55,196.91c0-6.68-.94-13.03-2.81-19.04-1.87-6.01-4.61-11.22-8.22-15.63-3.61-4.41-8.02-7.88-13.23-10.42-5.21-2.54-11.43-3.81-18.64-3.81s-14.03,1.41-19.64,4.21c-5.61,2.81-10.36,6.49-14.23,11.02-3.88,4.55-6.89,9.76-9.02,15.64-2.14,5.88-3.61,11.89-4.41,18.03h90.19Z"/>
        <path class="cls-10" d="M1405.53,119.55c9.35-2.67,21.51-5.21,36.48-7.62,14.96-2.4,31.53-3.61,49.7-3.61,17.1,0,31.4,2.34,42.89,7.02,11.48,4.68,20.64,11.22,27.46,19.64,6.81,8.42,11.62,18.58,14.43,30.47,2.81,11.89,4.21,24.92,4.21,39.08v117.85h-48.51v-110.24c0-11.22-.74-20.77-2.2-28.66-1.47-7.88-3.88-14.3-7.22-19.24-3.34-4.94-7.88-8.55-13.63-10.83-5.75-2.26-12.76-3.4-21.04-3.4-6.15,0-12.56.4-19.24,1.2-6.68.8-11.62,1.47-14.83,2.01v169.16h-48.5V119.55Z"/>
        <path class="cls-10" d="M1620.79,57.41l48.5-8.02v63.34h74.56v40.49h-74.56v85.38c0,16.83,2.67,28.86,8.02,36.08,5.34,7.21,14.43,10.82,27.26,10.82,8.82,0,16.63-.93,23.45-2.8,6.82-1.87,12.23-3.61,16.23-5.21l8.02,38.48c-5.61,2.4-12.97,4.88-22.05,7.42-9.09,2.54-19.78,3.81-32.07,3.81-14.97,0-27.46-2.01-37.48-6.01-10.02-4.01-17.98-9.82-23.85-17.44-5.88-7.61-10.02-16.83-12.43-27.65-2.4-10.83-3.61-23.19-3.61-37.08V57.41Z"/>
        <path class="cls-10" d="M1851.67,107.52c16.03,0,29.52,2.01,40.48,6.02,10.95,4.01,19.71,9.62,26.26,16.83,6.55,7.21,11.23,15.97,14.03,26.26,2.81,10.29,4.21,21.59,4.21,33.87v127.07c-7.49,1.6-18.78,3.54-33.87,5.81-15.1,2.26-32.13,3.41-51.11,3.41-12.56,0-24.05-1.2-34.47-3.61-10.42-2.4-19.31-6.27-26.66-11.62-7.35-5.34-13.1-12.28-17.24-20.84-4.15-8.55-6.21-19.1-6.21-31.67s2.33-22.17,7.01-30.46c4.67-8.28,11.02-15.03,19.04-20.24,8.02-5.21,17.3-8.95,27.86-11.22,10.56-2.27,21.58-3.41,33.07-3.41,5.34,0,10.95.34,16.84,1.01,5.88.67,12.16,1.8,18.84,3.4v-8.02c0-5.61-.67-10.95-2-16.04-1.34-5.07-3.68-9.55-7.01-13.43-3.34-3.87-7.76-6.87-13.23-9.02-5.48-2.13-12.37-3.21-20.65-3.21-11.22,0-21.51.8-30.87,2.41-9.36,1.6-16.97,3.47-22.85,5.61l-6.01-39.28c6.14-2.14,15.1-4.27,26.86-6.42,11.76-2.13,24.32-3.21,37.68-3.21ZM1855.68,288.31c14.96,0,26.32-.8,34.07-2.41v-53.71c-2.67-.8-6.55-1.6-11.62-2.4-5.08-.8-10.69-1.2-16.84-1.2-5.35,0-10.76.41-16.23,1.2-5.48.8-10.42,2.28-14.83,4.41-4.41,2.15-7.95,5.15-10.62,9.02-2.68,3.88-4.01,8.76-4.01,14.63,0,11.5,3.61,19.45,10.82,23.85,7.22,4.41,16.97,6.62,29.26,6.62Z"/>
      </g>
      <g id="Maventa">
        <path class="cls-8" d="M152.93,405.24c14.68,6.63,30.78,10.42,47.82,10.89,57.29,2.37,111.74-28.41,135.88-88.06-59.66-24.62-119.79-7.58-158.14,35.51-11.36,12.78-19.89,26.51-25.57,41.66Z"/>
        <path class="cls-11" d="M201.7,411.87c-16.57-.47-32.2-4.26-47.35-10.42l-1.42,4.26c14.68,6.63,30.78,10.42,47.82,10.89,47.35,1.89,92.8-18.94,120.73-59.66-28.88,37.4-73.39,56.82-119.79,54.92Z"/>
        <path class="cls-2" d="M336.63,328.06c-131.62,21.78-255.2-67.71-276.5-198.86-7.1-44.03-1.89-87.12,13.73-125.94h.95c131.15-20.83,254.72,68.18,275.56,199.33,7.1,44.03,1.42,87.12-13.73,125.47Z"/>
        <path class="cls-6" d="M73.86,3.27h.95c131.15-20.83,254.72,68.18,275.56,199.33,7.1,44.03,1.89,87.12-13.73,125.94L73.86,3.27Z"/>
        <path class="cls-3" d="M350.36,207.33c1.89,12.31,2.84,24.62,2.84,36.93,0-13.73-.95-27.93-2.84-41.66C329.06,70.97,205.48-18.51,73.86,3.27c0,.47,2.37,3.31,2.84,3.79,130.68-17.99,252.36,70.55,273.66,200.28Z"/>
        <path class="cls-7" d="M336.63,328.06c-49.71-79.07-143.46-124.99-241.47-109.37C60.13,224.37,27.93,237.16,0,255.62c49.71,79.07,143.46,124.99,241.47,109.37,35.04-5.21,67.23-17.99,95.17-36.93Z"/>
        <path class="cls-4" d="M95.17,219.17h-.95c49.71,79.07,143.93,125.47,242.41,108.9-49.71-78.6-143.46-124.99-241.47-108.9Z"/>
        <path class="cls-5" d="M241.47,365.47c35.04-5.68,67.23-18.47,95.17-36.93-59.66-24.62-119.79-7.58-158.14,35.51-.95.95-1.89,2.37-2.84,3.31,21.31,1.89,43.56,1.42,65.81-1.89Z"/>
        <path class="cls-1" d="M336.63,328.54c-34.09-14.2-68.18-14.2-98.01-4.26,30.78,7.58,63.92,9.47,98.01,4.26Z"/>
        <path class="cls-9" d="M336.16,328.54s.47,0,.47-.47c-49.71-79.07-143.46-124.99-241.47-109.37-35.04,5.68-67.23,18.47-95.17,36.93.95,1.42,1.89,2.84,2.84,4.73,111.74-73.86,259.46-42.14,333.32,68.18Z"/>
      </g>
    </g>
  </g>
</svg>