<?xml version="1.0" encoding="UTF-8"?>
<svg id="uuid-86801789-c2ff-4cd0-b2a7-8bd1480f7b5c" data-name="desz" xmlns="http://www.w3.org/2000/svg" viewBox="0 0 2371.19231 630.439">
  <defs>
    <style>
      .uuid-d7af2d22-1b58-417d-8389-5ee70eff6b95 {
        fill: #003253;
      }

      .uuid-80565de2-7046-43f8-9112-2f71994d6e05 {
        fill: #68a611;
      }

      .uuid-ca022a4f-a8d6-4383-8ac0-eca585d1fb25 {
        fill: #69a000;
      }

      .uuid-af865def-e3e0-4da3-8fc0-dbaaf8917603 {
        fill: #73aa0b;
      }

      .uuid-ad1c8b9b-9437-4f1e-a177-c234a56c6899 {
        fill: #7fb823;
      }

      .uuid-cce578cd-5d5d-45e1-9b37-9cfa7df10e0f {
        fill: #649911;
      }

      .uuid-81ffff50-d6de-40a3-a7a1-22156dd1f247 {
        fill: #659e09;
      }

      .uuid-e5deb006-c2aa-410b-8a10-c00ef4471269 {
        fill: #8cbf27;
      }

      .uuid-ffcca8d3-e9ff-4877-bc56-e587e2e6b0c5 {
        fill: #538f00;
      }

      .uuid-cd9d0165-be9d-41ca-947b-80601a31869a {
        fill: #6fa80a;
      }

      .uuid-489d1b3f-363c-42f9-87af-7d96349490aa {
        fill: #5a9300;
      }
    </style>
  </defs>
  <g>
    <path class="uuid-d7af2d22-1b58-417d-8389-5ee70eff6b95" d="m786.23683,320.247c0-21.90737-2.74366-37.74023-8.21701-47.49858-5.48034-9.75136-15.70354-14.63054-30.66612-14.63054-5.34752,0-11.22281.39844-17.63634,1.20232-6.41353.80388-11.22281,1.46795-14.43132,2.00619v169.15646h-48.50168v-202.82838c9.34943-2.67027,21.57533-5.21471,36.67771-7.61935,15.09539-2.40464,31.06456-3.60696,47.90052-3.60696,14.43132,0,26.25529,1.87338,35.47539,5.61315,9.22011,3.74676,16.89887,8.68885,23.05027,14.83326,2.93589-2.13901,6.67567-4.41083,11.22281-6.81547,4.54015-2.40464,9.61855-4.61355,15.2317-6.61275,5.61315-2.00619,11.55484-3.66987,17.83905-5.01199,6.27373-1.33513,12.62435-2.00619,19.03788-2.00619,16.29771,0,29.72593,2.34173,40.28467,7.01819,10.55524,4.67646,18.84215,11.21931,24.85375,19.63554,6.01159,8.42322,10.1533,18.58002,12.42513,30.47039,2.26833,11.89037,3.40773,24.92015,3.40773,39.08235v117.84821h-48.50168v-110.23585c0-21.90737-2.67376-37.74023-8.01779-47.49858-5.34752-9.75136-15.63364-14.63054-30.86534-14.63054-7.75216,0-15.09889,1.27222-22.04717,3.80967-6.95178,2.53745-12.16299,5.005-15.63014,7.40964,2.13551,6.68266,3.60696,13.77074,4.40734,21.25028.80388,7.47954,1.20232,15.49733,1.20232,24.04638v115.849h-48.50168v-110.23585Z"/>
    <path class="uuid-d7af2d22-1b58-417d-8389-5ee70eff6b95" d="m1074.44382,215.62429c16.03208,0,29.52322,2.00619,40.48389,6.01858,10.95368,4.0054,19.70545,9.61855,26.25529,16.83246,6.54635,7.21391,11.2263,15.97266,14.02938,26.25529,2.80658,10.28961,4.21161,21.58582,4.21161,33.87463v127.06832c-7.48653,1.60076-18.77924,3.54404-33.87463,5.80888-15.09889,2.26483-32.13407,3.41123-51.10554,3.41123-12.56493,0-24.05337-1.20232-34.4723-3.61395-10.42243-2.40464-19.3105-6.27023-26.65722-11.62474-7.35372-5.34053-13.09619-12.28183-17.2379-20.83786-4.1452-8.54905-6.21082-19.10429-6.21082-31.67271,0-12.02319,2.33474-22.17299,7.01469-30.4634,4.66947-8.27643,11.02009-15.02898,19.03788-20.24369,8.01779-5.20772,17.30081-8.94749,27.85954-11.21931,10.55524-2.27182,21.57533-3.41123,33.07076-3.41123,5.34053,0,10.95368.34252,16.83596,1.00659,5.87528.67106,12.156,1.80348,18.83866,3.40424v-8.01779c0-5.61315-.67106-10.95368-2.0027-16.03558-1.34212-5.06791-3.67686-9.54865-7.01469-13.42822-3.34482-3.86559-7.75565-6.87139-13.229-9.01739-5.48034-2.13202-12.36571-3.20851-20.64563-3.20851-11.22281,0-21.51242.80388-30.86534,2.41163-9.35642,1.60076-16.97227,3.47414-22.84755,5.60616l-6.01159-39.27808c6.14441-2.13901,15.09539-4.27103,26.85645-6.41703,11.75756-2.13202,24.3155-3.20851,37.68081-3.20851Zm4.00889,180.7882c14.96258,0,26.3182-.80388,34.07036-2.41163v-53.71289c-2.67376-.79689-6.54984-1.60076-11.62474-2.40464-5.0784-.79689-10.69155-1.20232-16.83596-1.20232-5.34752,0-10.75796.40543-16.2348,1.20232-5.48034.80388-10.42243,2.27881-14.82976,4.41083-4.41083,2.146-7.95488,5.1518-10.62165,9.01739-2.67726,3.87958-4.00889,8.75875-4.00889,14.63054,0,11.49892,3.60696,19.44681,10.82087,23.85065,7.21741,4.41083,16.96877,6.61974,29.26458,6.61974Z"/>
    <path class="uuid-d7af2d22-1b58-417d-8389-5ee70eff6b95" d="m1258.74111,430.48285c-13.41424-27.52052-27.17101-59.12333-41.25631-94.80144-14.09229-35.67811-26.90188-73.95658-38.43575-114.84241h51.72767c2.94988,11.76455,6.3681,24.3889,10.25816,37.88003,3.89006,13.49813,8.04924,26.99625,12.47755,40.48738,4.42831,13.49113,8.98593,26.59082,13.68337,39.27808,4.69743,12.69425,9.05584,24.12327,13.0857,34.27307,4.01938-10.14981,8.31487-21.57883,12.876-34.27307,4.56112-12.68726,9.05584-25.78694,13.48414-39.27808,4.42132-13.49113,8.6504-26.98926,12.67677-40.48738,4.02287-13.49113,7.511-26.11548,10.46786-37.88003h50.11642c-11.53737,40.88583-24.35045,79.1643-38.43575,114.84241-14.09229,35.67811-27.84207,67.28092-41.25631,94.80144h-41.46951Z"/>
    <path class="uuid-d7af2d22-1b58-417d-8389-5ee70eff6b95" d="m1382.29334,326.66402c0-18.44021,2.73667-34.60861,8.21701-48.50517,5.47335-13.88958,12.75716-25.45141,21.84795-34.67152,9.0803-9.22011,19.50273-16.16839,31.26378-20.84485,11.75756-4.67646,23.78424-7.01819,36.07655-7.01819,28.86264,0,51.37117,8.96147,67.54305,26.85645,16.1649,17.90896,24.25259,44.63259,24.25259,80.17089,0,2.67726-.0699,5.68305-.20272,9.01739-.13631,3.34832-.33553,6.35411-.60116,9.02438h-138.29112c1.33513,16.83246,7.27682,29.86224,17.83905,39.08235,10.55175,9.22011,25.85335,13.82667,45.89432,13.82667,11.75756,0,22.51202-1.06251,32.27038-3.20851,9.75136-2.13202,17.43712-4.40384,23.04677-6.80848l6.41353,39.68351c-2.67376,1.33513-6.35062,2.74017-11.02359,4.20812-4.67646,1.46795-10.02049,2.80308-16.03208,4.0054s-12.49503,2.20891-19.43982,3.0058c-6.95527.80388-14.03288,1.20232-21.24679,1.20232-18.44021,0-34.4723-2.74017-48.09974-8.21351-13.63094-5.47335-24.85375-13.09269-33.67192-22.85105-8.81817-9.75136-15.37151-21.24329-19.64253-34.47579-4.27802-13.22551-6.41353-27.71624-6.41353-43.48619Zm140.69926-21.64873c0-6.67567-.94019-13.02978-2.80658-19.04137-1.87338-6.01159-4.61005-11.21931-8.21701-15.63014-3.61045-4.41083-8.01779-7.87798-13.229-10.42243-5.21121-2.53745-11.42552-3.80967-18.63944-3.80967-7.48653,0-14.02938,1.40504-19.64253,4.20812-5.60966,2.81007-10.35951,6.48693-14.2286,11.02359-3.87608,4.55064-6.88537,9.75835-9.02089,15.63713-2.1425,5.87878-3.60696,11.89037-4.40734,18.03478h90.19138Z"/>
    <path class="uuid-d7af2d22-1b58-417d-8389-5ee70eff6b95" d="m1613.98087,227.65447c9.34943-2.67027,21.50892-5.21471,36.47849-7.61935,14.96258-2.40464,31.52941-3.60696,49.704-3.60696,17.09809,0,31.3966,2.34173,42.89202,7.01819,11.48494,4.67646,20.64214,11.21931,27.45761,19.63554,6.81197,8.42322,11.62474,18.58002,14.42783,30.47039,2.80658,11.89037,4.21161,24.92015,4.21161,39.08235v117.84821h-48.50517v-110.23585c0-11.21931-.73747-20.77495-2.20192-28.65992-1.47494-7.87798-3.87958-14.29501-7.21741-19.2371-3.34482-4.94209-7.88497-8.54905-13.62744-10.82786-5.74946-2.26483-12.76415-3.40424-21.04407-3.40424-6.1514,0-12.56493.39844-19.2406,1.20232-6.68266.80388-11.62474,1.46795-14.83326,2.00619v169.15646h-48.50168v-202.82838Z"/>
    <path class="uuid-d7af2d22-1b58-417d-8389-5ee70eff6b95" d="m1829.23437,165.51836l48.50168-8.01779v63.33843h74.55774v40.48738h-74.55774v85.37861c0,16.83246,2.66677,28.86264,8.01779,36.07655,5.34053,7.21391,14.43132,10.82087,27.25838,10.82087,8.81817,0,16.63324-.9297,23.44871-2.80308,6.81547-1.86639,12.2259-3.60696,16.2348-5.21471l8.01779,38.48119c-5.61315,2.40464-12.96687,4.87918-22.04717,7.41663-9.09079,2.53745-19.77884,3.80967-32.06766,3.80967-14.96957,0-27.45761-2.00619-37.48159-6.01159-10.02049-4.01239-17.97536-9.82127-23.85065-17.44061-5.87878-7.61236-10.02049-16.83246-12.42513-27.65333-2.40464-10.82786-3.60696-23.18658-3.60696-37.08315v-181.58508Z"/>
    <path class="uuid-d7af2d22-1b58-417d-8389-5ee70eff6b95" d="m2060.12151,215.62429c16.03208,0,29.52322,2.00619,40.48389,6.01858,10.95368,4.0054,19.70545,9.61855,26.25529,16.83246,6.54635,7.21391,11.2263,15.97266,14.02938,26.25529,2.80658,10.28961,4.21161,21.58582,4.21161,33.87463v127.06832c-7.48653,1.60076-18.77924,3.54404-33.87463,5.80888-15.09889,2.26483-32.13407,3.41123-51.10554,3.41123-12.56493,0-24.05337-1.20232-34.4723-3.61395-10.42243-2.40464-19.3105-6.27023-26.65722-11.62474-7.35372-5.34053-13.09619-12.28183-17.2379-20.83786-4.1452-8.54905-6.21082-19.10429-6.21082-31.67271,0-12.02319,2.33474-22.17299,7.01469-30.4634,4.66947-8.27643,11.02009-15.02898,19.03788-20.24369,8.01779-5.20772,17.30081-8.94749,27.85954-11.21931,10.55524-2.27182,21.57533-3.41123,33.07076-3.41123,5.34053,0,10.95368.34252,16.83596,1.00659,5.87528.67106,12.156,1.80348,18.83866,3.40424v-8.01779c0-5.61315-.67106-10.95368-2.0027-16.03558-1.34212-5.06791-3.67686-9.54865-7.01469-13.42822-3.34482-3.86559-7.75565-6.87139-13.229-9.01739-5.48034-2.13202-12.36571-3.20851-20.64563-3.20851-11.22281,0-21.51242.80388-30.86534,2.41163-9.35642,1.60076-16.97227,3.47414-22.84755,5.60616l-6.01159-39.27808c6.14441-2.13901,15.09539-4.27103,26.85645-6.41703,11.75756-2.13202,24.3155-3.20851,37.68081-3.20851Zm4.00889,180.7882c14.96258,0,26.3182-.80388,34.07036-2.41163v-53.71289c-2.67376-.79689-6.54984-1.60076-11.62474-2.40464-5.0784-.79689-10.69155-1.20232-16.83596-1.20232-5.34752,0-10.75796.40543-16.2348,1.20232-5.48034.80388-10.42243,2.27881-14.82976,4.41083-4.41083,2.146-7.95488,5.1518-10.62165,9.01739-2.67726,3.87958-4.00889,8.75875-4.00889,14.63054,0,11.49892,3.60696,19.44681,10.82087,23.85065,7.21741,4.41083,16.96877,6.61974,29.26458,6.61974Z"/>
  </g>
  <g id="uuid-ccb2b02b-f076-423e-b781-90b9a43182ef" data-name="Maventa">
    <path class="uuid-80565de2-7046-43f8-9112-2f71994d6e05" d="m361.79602,511.59002c14.67741,6.62852,30.77524,10.41622,47.81997,10.88971,57.28928,2.36733,111.73777-28.40791,135.88452-88.06451-59.6566-24.62017-119.78668-7.57544-158.13737,35.50989-11.36317,12.78354-19.88554,26.51404-25.56713,41.66491Z"/>
    <path class="uuid-cce578cd-5d5d-45e1-9b37-9cfa7df10e0f" d="m410.56293,518.21854c-16.57128-.47346-32.19563-4.26119-47.34652-10.41622l-1.42039,4.26119c14.67741,6.62852,30.77524,10.41622,47.81997,10.88971,47.34652,1.89387,92.79916-18.93861,120.73362-59.6566-28.88137,37.40375-73.3871,56.81582-119.78668,54.92191Z"/>
    <path class="uuid-ffcca8d3-e9ff-4877-bc56-e587e2e6b0c5" d="m545.50052,434.41522c-131.62333,21.77939-255.19774-67.70553-276.50367-198.85538-7.10198-44.03226-1.89386-87.11759,13.73049-125.94173h.94693c131.14985-20.83247,254.72427,68.17898,275.55671,199.32883,7.10198,44.03226,1.42041,87.11758-13.73046,125.46828Z"/>
    <path class="uuid-489d1b3f-363c-42f9-87af-7d96349490aa" d="m282.72733,109.6181h.94693c131.14985-20.83247,254.72427,68.17898,275.55671,199.32883,7.10198,44.03226,1.89387,87.11758-13.7305,125.94174L282.72733,109.6181Z"/>
    <path class="uuid-ca022a4f-a8d6-4383-8ac0-eca585d1fb25" d="m559.23098,313.68158c1.89387,12.31009,2.84078,24.62019,2.84078,36.93028,0-13.7305-.94692-27.93445-2.84078-41.66493-21.30593-131.62331-144.88033-221.10822-276.50364-199.32883,0,.47346,2.36733,3.31426,2.84079,3.78772,130.67639-17.99168,252.35692,70.54631,273.66285,200.27576Z"/>
    <path class="uuid-ad1c8b9b-9437-4f1e-a177-c234a56c6899" d="m545.50052,434.41522c-49.71384-79.06868-143.45994-124.99481-241.46723-109.37044-35.03642,5.68159-67.23206,18.46515-95.1665,36.93028,49.71384,79.06868,143.45993,124.99479,241.46724,109.37046,35.03643-5.20811,67.23204-17.99169,95.16649-36.9303Z"/>
    <path class="uuid-81ffff50-d6de-40a3-a7a1-22156dd1f247" d="m304.03327,325.51821h-.94693c49.71384,79.06868,143.93342,125.46828,242.41418,108.897-49.71384-78.59521-143.45994-124.99481-241.46725-108.897Z"/>
    <path class="uuid-e5deb006-c2aa-410b-8a10-c00ef4471269" d="m450.33401,471.81894c35.03641-5.68157,67.23206-18.46515,95.16651-36.9303-59.6566-24.62017-119.78668-7.57544-158.13737,35.50989-.94693.94692-1.89387,2.36733-2.84078,3.31424,21.30593,1.89387,43.5588,1.42041,65.81165-1.89383Z"/>
    <path class="uuid-cd9d0165-be9d-41ca-947b-80601a31869a" d="m545.50052,434.88867c-34.08948-14.20395-68.17899-14.20395-98.00729-4.26119,30.77525,7.57544,63.91781,9.4693,98.00729,4.26119Z"/>
    <path class="uuid-af865def-e3e0-4da3-8fc0-dbaaf8917603" d="m545.02702,434.88867s.47346,0,.47346-.47346c-49.71384-79.06868-143.45994-124.99481-241.46723-109.37044-35.03642,5.68159-67.23206,18.46515-95.1665,36.93028.94693,1.42039,1.89386,2.84078,2.84079,4.73465,111.73777-73.86058,259.45888-42.13839,333.31948,68.17897Z"/>
  </g>
</svg>